
<svg  viewBox="0 0 64 64" fill="none" xmlns="http://www.w3.org/2000/svg">
<path d="M27.3504 57.8496L29.5504 48.0996L19.8004 45.8996L17.6504 55.6996L27.3504 57.8496ZM46.5504 11.7496L42.1504 8.54961L38.9504 12.9996L43.4004 16.1496L46.5504 11.7496ZM48.5004 0.0996094H64.1504V9.34961L56.6504 11.1496L58.4004 18.6996L64.1504 17.3996V34.4996L60.8004 34.8996L61.4504 40.2996L64.1504 39.9996V64.0996H48.5504L48.9504 60.2996L39.4004 59.1996L38.8504 64.0996H0.150391V39.9996L2.8504 39.6496L2.20038 34.2496L0.150391 34.4996V17.3996L2.00037 16.9496L0.200378 9.34961H0.150391V0.0996094H38.8504L38.3004 4.7496L47.8504 5.84961L48.5004 0.0996094ZM54.3004 23.8996L50.3504 20.1496L46.6004 24.0996L50.5504 27.8496L54.3004 23.8996ZM55.4004 49.5996L54.8504 55.0496L60.2504 55.5996L60.8504 50.1496L55.4004 49.5996ZM42.9004 44.3496L45.2504 51.7496L52.6504 49.3996L50.3004 41.9996L42.9004 44.3496ZM58.4504 32.2496L53.3504 30.2996L51.4004 35.3996L56.5504 37.3996L58.4504 32.2496ZM44.8004 29.7496L40.6004 33.1996L44.0504 37.3996L48.3004 33.9496L44.8004 29.7496ZM5.40039 8.94962L10.3504 6.69962L8.15039 1.79961L3.15039 3.9996L5.40039 8.94962ZM26.3504 9.34961L19.4504 2.9996L13.1004 9.89961L20.0004 16.2496L26.3504 9.34961ZM28.0504 38.5496L35.4504 36.1996L33.1004 28.7496L25.6504 31.0996L28.0504 38.5496ZM31.3504 18.7496L30.8004 24.1496L36.2004 24.6996L36.7504 19.2996L31.3504 18.7496ZM15.4504 38.4496L11.1004 35.2996L7.90039 39.6496L12.3004 42.8496L15.4504 38.4496ZM8.45038 29.1996L18.3004 31.7996L20.8504 21.8996L11.0004 19.3496L8.45038 29.1996ZM1.95038 57.0496L2.80042 62.3996L8.15039 61.5496L7.30042 56.1996L1.95038 57.0496ZM8.75037 47.0496L10.3004 51.6496L14.9004 50.0996L13.3504 45.4496L8.75037 47.0496ZM32.3004 48.4496L34.5004 53.3996L39.4504 51.1996L37.2004 46.1996L32.3004 48.4496Z" fill="#BB8044"/>
<path d="M64.1504 9.34961V17.3996L58.4004 18.6996L56.6504 11.1496L64.1504 9.34961ZM48.5504 64.0996H38.8504L39.4004 59.1996L48.9504 60.2996L48.5504 64.0996ZM0.150391 17.3996V9.34961H0.200378L2.00037 16.9496L0.150391 17.3996ZM38.8504 0.0996094H48.5004L47.8504 5.84961L38.3004 4.7496L38.8504 0.0996094ZM44.8004 29.7496L48.3004 33.9496L44.0504 37.3996L40.6004 33.1996L44.8004 29.7496ZM58.4504 32.2496L56.5504 37.3996L51.4004 35.3996L53.3504 30.2996L58.4504 32.2496ZM42.9004 44.3496L50.3004 41.9996L52.6504 49.3996L45.2504 51.7496L42.9004 44.3496ZM55.4004 49.5996L60.8504 50.1496L60.2504 55.5996L54.8504 55.0496L55.4004 49.5996ZM28.0504 38.5496L25.6504 31.0996L33.1004 28.7496L35.4504 36.1996L28.0504 38.5496ZM8.45038 29.1996L11.0004 19.3496L20.8504 21.8996L18.3004 31.7996L8.45038 29.1996Z" fill="#B17940"/>
<path d="M46.5493 11.7498L43.3992 16.1498L38.9492 12.9998L42.1492 8.5498L46.5493 11.7498ZM5.39923 8.94981L3.14923 3.9998L8.14923 1.7998L10.3492 6.69981L5.39923 8.94981ZM15.4492 38.4498L12.2993 42.8498L7.89923 39.6498L11.0992 35.2998L15.4492 38.4498ZM1.94922 57.0498L7.29926 56.1998L8.14923 61.5498L2.79926 62.3998L1.94922 57.0498ZM32.2993 48.4498L37.1992 46.1998L39.4492 51.1998L34.4992 53.3998L32.2993 48.4498Z" fill="#CD8C4A"/>
<path d="M64.1504 34.5V40L61.4504 40.3L60.8004 34.9L64.1504 34.5ZM0.150391 40V34.5L2.20038 34.25L2.8504 39.65L0.150391 40ZM31.3504 18.75L36.7504 19.3L36.2004 24.7L30.8004 24.15L31.3504 18.75ZM8.75037 47.05L13.3504 45.45L14.9004 50.1L10.3004 51.65L8.75037 47.05Z" fill="#C48647"/>
<path d="M54.2996 23.9L50.5496 27.85L46.5996 24.1L50.3496 20.15L54.2996 23.9ZM26.3496 9.35001L19.9996 16.25L13.0996 9.90001L19.4496 3L26.3496 9.35001ZM27.3496 57.85L17.6496 55.7L19.7996 45.9L29.5496 48.1L27.3496 57.85Z" fill="#9F6C39"/>
</svg>

