  <svg
    width="65"
    height="65"
    viewBox="0 0 64 64"
    fill="none"
    xmlns="http://www.w3.org/2000/svg"
    style="transform:rotate(0deg)"
  >
    <path
      d="M47.3992 5.79961V5.04961L38.2992 4.69962L38.8491 0.0996094H48.4991L47.8491 5.84961L47.3992 5.79961ZM27.1492 35.7496L25.6992 31.1996L33.9991 31.5496L35.2491 35.5496L27.1492 35.7496ZM8.14917 61.5496L2.79919 62.3996L2.69922 61.6996L8.14917 61.5496ZM38.8491 64.0996L39.0492 62.3996L48.7491 62.1496L48.5492 64.0996H38.8491ZM23.7992 57.0996H23.7491L17.6492 55.6996L19.7992 45.8996L23.4991 46.7496H23.5492L23.7992 57.0996ZM64.1492 34.7496L61.4991 34.8496L64.1492 34.4996V34.7496ZM57.4492 34.9496L51.5492 35.0996L53.3491 30.2996L58.4492 32.2496L57.4492 34.9496ZM46.7491 35.2496L42.3491 35.3496L40.5991 33.1996L42.1992 31.8996L46.2491 32.0496L46.2992 31.5496L48.2992 33.9496L46.7491 35.2496Z"
      fill="#819A9C"
    />
    <path
      d="M46.7504 35.2504L51.5504 35.1004L57.4504 34.9504L61.5004 34.8504L64.1504 34.7504V36.7504L23.3004 37.8504L23.2504 35.8504L27.1504 35.7504L35.2504 35.5504L42.3503 35.3504L46.7504 35.2504ZM38.3004 4.70039L47.4004 5.05038V5.80038L47.3503 7.05038L0.150391 5.10039V3.10039L38.3004 4.70039ZM0.150391 34.7504L17.0504 34.3004L17.7504 61.3004H17.7004L17.0504 36.3004L0.150391 36.7504V34.7504ZM52.8004 22.5004L53.6504 2.65039L64.1504 3.10039V5.10039L53.6504 4.65039L52.6003 29.6004H52.5004L52.7004 25.6504L52.8004 22.5004Z"
      fill="#EC855B"
    />
    <path
      d="M52.8004 22.4996L50.3503 20.1496L46.6504 24.0996L47.3503 7.04961L47.4004 5.79961L47.8503 5.84961L48.5004 0.0996094H64.1504V3.09961L53.6504 2.64961L52.8004 22.4996ZM38.8503 0.0996094L38.3004 4.69962L0.150391 3.09961V0.0996094H38.8503ZM27.1504 35.7496L23.2504 35.8496L23.3004 37.8496L23.5504 46.7496H23.5004L19.8004 45.8996L17.6504 55.6996L23.7504 57.0996H23.8004L23.9504 62.7996L39.0504 62.3996L38.8503 64.0996H0.150391V61.7496L2.70044 61.6996L2.80042 62.3996L8.15039 61.5496L17.7004 61.2996H17.7504L17.0504 34.2996L0.150391 34.7496V30.0996L25.7004 31.1996L27.1504 35.7496ZM61.5004 34.8496L57.4504 34.9496L58.4504 32.2496L53.3503 30.2996L51.5504 35.0996L46.7504 35.2496L48.3004 33.9496L46.3004 31.5496L46.6504 24.1496L50.5504 27.8496L52.7004 25.6496L52.5004 29.5996H52.6003L64.1504 30.0996V34.4996L61.5004 34.8496ZM42.3503 35.3496L35.2504 35.5496L34.0004 31.5496L42.2004 31.8996L40.6003 33.1996L42.3503 35.3496ZM64.1504 61.7496V64.0996H48.5504L48.7504 62.1496L64.1504 61.7496Z"
      fill="#89A4A6"
    />
    <path
      d="M64.1504 61.7504L48.7504 62.1504L39.0504 62.4004L23.9504 62.8004L23.8004 57.1004L23.5504 46.7504L23.3004 37.8504L64.1504 36.7504V61.7504ZM0.150391 5.10039L47.3503 7.05038L46.6504 24.1004H46.6003L46.6504 24.1504L46.3004 31.5504L46.2504 32.0504L42.2004 31.9004L34.0004 31.5504L25.7004 31.2004L0.150391 30.1004V5.10039ZM28.8503 20.1004L33.9504 20.6504L34.5004 15.6004L29.4004 15.0504L28.8503 20.1004ZM17.7004 61.3004L8.15039 61.5504L2.70044 61.7004L0.150391 61.7504V36.7504L17.0504 36.3004L17.7004 61.3004ZM29.1003 23.4504L24.2504 22.9004L23.7504 27.7504L28.6003 28.3004L29.1003 23.4504ZM52.6003 29.6004L53.6504 4.65039L64.1504 5.10039V30.1004L52.6003 29.6004ZM43.7004 21.3504L36.1504 20.5504L35.3503 28.1004L42.9004 28.9004L43.7004 21.3504ZM9.80042 49.7504L10.0504 54.7504L15.2004 54.5004L14.9504 49.4504L9.80042 49.7504ZM8.25037 56.9504L8.00037 53.2004L4.20044 53.3504L4.40039 57.1004L8.25037 56.9504ZM36.1504 41.8504L36.4004 46.8504L41.5504 46.6004L41.3004 41.5504L36.1504 41.8504ZM26.4004 41.2004L26.8503 48.7504L34.4004 48.4004L34.0504 40.8004L26.4004 41.2004ZM36.3503 53.9504L36.1003 50.2004L32.3004 50.3504L32.5004 54.1004L36.3503 53.9504Z"
      fill="#E07B51"
    />
    <path
      d="M36.3491 53.9498L32.4991 54.0998L32.2992 50.3498L36.0991 50.1998L36.3491 53.9498ZM28.8491 20.0998L29.3992 15.0498L34.4991 15.5998L33.9492 20.6498L28.8491 20.0998ZM29.0991 23.4498L28.5991 28.2998L23.7491 27.7498L24.2491 22.8998L29.0991 23.4498ZM43.6992 21.3498L42.8992 28.8998L35.3491 28.0998L36.1492 20.5498L43.6992 21.3498ZM8.24915 56.9498L4.39917 57.0998L4.19922 53.3498L7.99915 53.1998L8.24915 56.9498ZM9.79919 49.7498L14.9492 49.4498L15.1992 54.4998L10.0492 54.7498L9.79919 49.7498ZM36.1492 41.8498L41.2992 41.5498L41.5492 46.5998L36.3992 46.8498L36.1492 41.8498ZM26.3992 41.1998L34.0492 40.7998L34.3992 48.3998L26.8491 48.7498L26.3992 41.1998Z"
      fill="#D77147"
    />
    <path
      d="M46.6497 24.1004L50.3496 20.1504L52.7997 22.5004L52.6997 25.6504L50.5497 27.8504L46.6497 24.1504L46.5996 24.1004H46.6497Z"
      fill="#8EABAD"
    />
  </svg>
