
<svg viewBox="0 0 64 64" fill="none" xmlns="http://www.w3.org/2000/svg">
<path d="M32.9 50L32.15 50.35L34.35 55.3L39.3 53.1L38.55 51.5V51.45L38.95 51.3L39.3 51.1L37.05 46.1L32.15 48.35L32.9 50ZM38.4 4.7L38.15 6.64999L47.7 7.75L48.35 2H48.15L48.2 1.5L48.25 1L48.35 0H64V9.25L56.5 11.05L56.95 12.95L56.5 13.05L58.25 20.6L64 19.3V34.4L60.65 34.8L60.9 36.8H60.65L61.3 42.2L64 41.9V64H48.6L48.8 62.2H48.6L48.8 60.2L39.25 59.1L38.7 64H4.54999L8 63.45L7.70001 61.5L8 61.45L7.15002 56.1L1.79999 56.95L2.09998 58.9L1.79999 58.95L2.59998 64H0V41.9L2.70001 41.55L2.5 39.6L2.70001 39.55L2.04999 34.15L0 34.4V19.3L1.84998 18.85L1.40002 16.95L1.84998 16.85L0.0499878 9.25H0V0H38.7L38.15 4.64999L38.4 4.7ZM39.75 13.6L38.8 14.9L43.25 18.05L46.4 13.65L45.45 13L45.75 12.65L46.4 11.65L42 8.45L38.8 12.9L39.75 13.6ZM3.75 5.60001L3 5.89999L5.25 10.85C6.91667 10.1167 8.56668 9.36667 10.2 8.60001L9.45001 6.95L10.2 6.60001L8 1.7L3 3.89999L3.54999 5.14999L3.75 5.60001ZM25.2 10.35L26.2 9.25L19.3 2.89999L12.95 9.8L13.95 10.75L12.95 11.8L19.85 18.15L26.2 11.25L25.2 10.35ZM8.79999 29.25L8.29999 31.1L18.15 33.7L20.7 23.8L20.25 23.7L20.7 21.8L10.85 19.25L8.29999 29.1L8.79999 29.25ZM14.35 39.7L15.3 38.35L10.95 35.2L7.75 39.55L8.70001 40.25L7.75 41.55L12.15 44.75L15.3 40.35L14.35 39.7ZM34.75 36.3L35.3 36.1L32.95 28.65L25.5 31L26.1 32.85L25.5 33L27.9 40.45L35.3 38.1L34.75 36.3ZM9.20001 48.75L8.59998 48.95L10.15 53.55L14.75 52L14.15 50.2L14.75 50L13.2 45.35L8.59998 46.95L9.20001 48.75ZM17.95 55.7L17.5 57.6L27.2 59.75L29.4 50L29 49.9L29.4 48L19.65 45.8L17.5 55.6L17.95 55.7ZM47.45 24.95L46.45 26L50.4 29.75L54.15 25.8L53.15 24.85L54.15 23.8L50.2 20.05L46.45 24L47.45 24.95ZM41.45 34.3L40.45 35.1L43.9 39.3L48.15 35.85L47.15 34.65L48.15 33.85L44.65 29.65L40.45 33.1L41.45 34.3ZM51.95 35.6L51.25 37.3L56.4 39.3L58.3 34.15L57.65 33.9L58.3 32.15L53.2 30.2L51.25 35.3L51.95 35.6ZM30.85 24.1L30.65 26.05L36.05 26.6L36.6 21.2H36.4L36.6 19.2L31.2 18.65L30.65 24.05L30.85 24.1ZM43.35 46.1L42.75 46.25L45.1 53.65L52.5 51.3L51.95 49.5L52.5 49.3L50.15 41.9L42.75 44.25L43.35 46.1ZM54.9 55L54.7 56.95L60.1 57.5L60.7 52.05H60.5L60.7 50.05L55.25 49.5L54.7 54.95L54.9 55Z" fill="#BB8044"/>
<path d="M48.15 2H48.35L47.7 7.75L38.15 6.64999L38.4 4.7L39.3 4.8L39.6 4.85001L47.7 5.75L48.15 2ZM1.40002 16.95L1.84998 18.85L0 19.3V17.3L1.40002 16.95ZM2.5 39.6L2.70001 41.55L0 41.9V39.9L2.5 39.6ZM2.59998 64L1.79999 58.95L2.09998 58.9L2.65002 62.3L7.70001 61.5L8 63.45L4.54999 64H2.59998ZM48.6 62.2H48.8L48.6 64H48.4L48.6 62.2ZM64 41.9L61.3 42.2L60.65 36.8H60.9L61.3 40.2L64 39.9V41.9ZM64 19.3L58.25 20.6L56.5 13.05L56.95 12.95L58.25 18.6L64 17.3V19.3ZM45.45 13L46.4 13.65L43.25 18.05L38.8 14.9L39.75 13.6L43.25 16.05L45.45 13ZM9.45001 6.95L10.2 8.60001C8.56668 9.36667 6.91667 10.1167 5.25 10.85L3 5.89999L3.75 5.60001L4 6.10001L5.25 8.85001L9.45001 6.95ZM25.2 10.35L26.2 11.25L19.85 18.15L12.95 11.8L13.95 10.75L19.85 16.15L25.2 10.35ZM20.25 23.7L20.7 23.8L18.15 33.7L8.29999 31.1L8.79999 29.25L9.40002 29.4L18.15 31.7L20.25 23.7ZM14.35 39.7L15.3 40.35L12.15 44.75L7.75 41.55L8.70001 40.25L12.15 42.75L14.35 39.7ZM34.75 36.3L35.3 38.1L27.9 40.45L25.5 33L26.1 32.85L27.9 38.45L34.75 36.3ZM14.15 50.2L14.75 52L10.15 53.55L8.59998 48.95L9.20001 48.75L10.15 51.55L14.15 50.2ZM29 49.9L29.4 50L27.2 59.75L17.5 57.6L17.95 55.7L27.2 57.75L29 49.9ZM53.15 24.85L54.15 25.8L50.4 29.75L46.45 26L47.45 24.95L50.4 27.75L53.15 24.85ZM47.15 34.65L48.15 35.85L43.9 39.3L40.45 35.1L41.45 34.3L43.9 37.3L47.15 34.65ZM51.95 35.55L56.4 37.3L57.65 33.9L58.3 34.15L56.4 39.3L51.25 37.3L51.95 35.6V35.55ZM36.4 21.2H36.6L36.05 26.6L30.65 26.05L30.85 24.1L36.05 24.6L36.4 21.2ZM43.35 46.1L45.1 51.65L51.95 49.5L52.5 51.3L45.1 53.65L42.75 46.25L43.35 46.1ZM39.3 51.1L38.95 51.3L38.55 51.45V51.5L39.3 53.1L34.35 55.3L32.15 50.35L32.9 50L34.3 53.15L39.3 51.1ZM60.5 52.05H60.7L60.1 57.5L54.7 56.95L54.9 55L60.1 55.5L60.5 52.05Z" fill="#B37B41"/>
<path d="M38.3989 4.70039L38.1489 4.65039L39.2988 4.8004L38.3989 4.70039ZM3.74884 5.6004L3.54883 5.15039L3.99884 6.1004L3.74884 5.6004ZM8.79883 29.2504L8.29883 29.1004L9.39886 29.4004L8.79883 29.2504Z" fill="#A1C2C4"/>
<path d="M38.15 4.64999L38.7 0H48.35L48.25 1L48.2 1.5L48.15 2L47.7 5.75L39.6 4.85001L39.3 4.8L38.15 4.64999ZM0 9.25H0.0499878L1.84998 16.85L1.40002 16.95L0 17.3V9.25ZM38.7 64L39.25 59.1L48.8 60.2L48.6 62.2L48.4 64H38.7ZM56.95 12.95L56.5 11.05L64 9.25V17.3L58.25 18.6L56.95 12.95ZM8.29999 29.1L10.85 19.25L20.7 21.8L20.25 23.7L18.15 31.7L9.40002 29.4L8.29999 29.1ZM17.95 55.7L17.5 55.6L19.65 45.8L29.4 48L29 49.9L27.2 57.75L17.95 55.7ZM30.85 24.1L30.65 24.05L31.2 18.65L36.6 19.2L36.4 21.2L36.05 24.6L30.85 24.1Z" fill="#A08E70"/>
<path d="M0 34.4002L2.04999 34.1502L2.70001 39.5502L2.5 39.6002L0 39.9002V34.4002ZM2.09998 58.9002L1.79999 56.9502L7.15002 56.1002L8 61.4502L7.70001 61.5002L2.65002 62.3002L2.09998 58.9002ZM60.9 36.8002L60.65 34.8002L64 34.4002V39.9002L61.3 40.2002L60.9 36.8002ZM39.75 13.6002L38.8 12.9002L42 8.4502L46.4 11.6502L45.75 12.6502L45.45 13.0002L43.25 16.0502L39.75 13.6002ZM3.54999 5.15019L3 3.90019L8 1.7002L10.2 6.6002L9.45001 6.9502L5.25 8.8502L4 6.1002L3.54999 5.15019ZM13.95 10.7502L12.95 9.8002L19.3 2.90019L26.2 9.2502L25.2 10.3502L19.85 16.1502L13.95 10.7502ZM8.70001 40.2502L7.75 39.5502L10.95 35.2002L15.3 38.3502L14.35 39.7002L12.15 42.7502L8.70001 40.2502ZM26.1 32.8502L25.5 31.0002L32.95 28.6502L35.3 36.1002L34.75 36.3002L27.9 38.4502L26.1 32.8502ZM9.20001 48.7502L8.59998 46.9502L13.2 45.3502L14.75 50.0002L14.15 50.2002L10.15 51.5502L9.20001 48.7502ZM47.45 24.9502L46.45 24.0002L50.2 20.0502L54.15 23.8002L53.15 24.8502L50.4 27.7502L47.45 24.9502ZM41.45 34.3002L40.45 33.1002L44.65 29.6502L48.15 33.8502L47.15 34.6502L43.9 37.3002L41.45 34.3002ZM57.65 33.9002L56.4 37.3002L51.95 35.5502L51.25 35.3002L53.2 30.2002L58.3 32.1502L57.65 33.9002ZM51.95 49.5002L45.1 51.6502L43.35 46.1002L42.75 44.2502L50.15 41.9002L52.5 49.3002L51.95 49.5002ZM54.9 55.0002L54.7 54.9502L55.25 49.5002L60.7 50.0502L60.5 52.0502L60.1 55.5002L54.9 55.0002Z" fill="#AB9674"/>
<path d="M51.95 35.5508V35.6008L51.25 35.3008L51.95 35.5508Z" fill="#C48647"/>
<path d="M32.9004 50.0006L32.1504 48.3506L37.0504 46.1006L39.3004 51.1006L34.3004 53.1506L32.9004 50.0006Z" fill="#B79B74"/>
</svg>

