
<svg  viewBox="0 0 64 64" fill="none" xmlns="http://www.w3.org/2000/svg"  style="transform:rotate(180deg)">
<path d="M38.8504 0.0996094L38.3004 4.7496L47.8504 5.84961L48.5004 0.0996094H64.1504V9.34961L56.6504 11.1496L58.4004 18.6996L64.1504 17.3996V34.4996L60.8004 34.8996L61.4504 40.2996L64.1504 39.9996V64.0996H48.5504L48.9504 60.2996L39.4004 59.1996L38.8504 64.0996H0.150391V39.9996L2.8504 39.6496L2.20038 34.2496L0.150391 34.4996V17.3996L2.00037 16.9496L0.200378 9.34961H0.150391V0.0996094H38.8504ZM54.3004 23.8996L50.3504 20.1496L46.6004 24.0996L50.5504 27.8496L54.3004 23.8996ZM53.3504 30.2996L51.4004 35.3996L56.5504 37.3996L58.4504 32.2496L53.3504 30.2996ZM52.6504 49.3996L50.3004 41.9996L42.9004 44.3496L45.2504 51.7496L52.6504 49.3996ZM55.4004 49.5996L54.8504 55.0496L60.2504 55.5996L60.8504 50.1496L55.4004 49.5996ZM3.15039 3.9996L5.40039 8.94962L10.3504 6.69962L8.15039 1.79961L3.15039 3.9996ZM42.1504 8.54961L38.9504 12.9996L43.4004 16.1496L46.5504 11.7496L42.1504 8.54961ZM19.4504 2.9996L13.1004 9.89961L20.0004 16.2496L26.3504 9.34961L19.4504 2.9996ZM11.1004 35.2996L7.90039 39.6496L12.3004 42.8496L15.4504 38.4496L11.1004 35.2996ZM34.5004 53.3996L39.4504 51.1996L37.2004 46.1996L32.3004 48.4496L34.5004 53.3996ZM27.3504 57.8496L29.5504 48.0996L19.8004 45.8996L17.6504 55.6996L27.3504 57.8496ZM40.6004 33.1996L44.0504 37.3996L48.3004 33.9496L44.8004 29.7496L40.6004 33.1996ZM35.4504 36.1996L33.1004 28.7496L25.6504 31.0996L28.0504 38.5496L35.4504 36.1996ZM36.2004 24.6996L36.7504 19.2996L31.3504 18.7496L30.8004 24.1496L36.2004 24.6996ZM11.0004 19.3496L8.45038 29.1996L18.3004 31.7996L20.8504 21.8996L11.0004 19.3496ZM10.3004 51.6496L14.9004 50.0996L13.3504 45.4496L8.75037 47.0496L10.3004 51.6496ZM8.15039 61.5496L7.30042 56.1996L1.95038 57.0496L2.80042 62.3996L8.15039 61.5496Z" fill="#89A4A6"/>
<path d="M8.15039 61.5496L2.80042 62.3996L1.95038 57.0496L7.30042 56.1996L8.15039 61.5496ZM48.5004 0.0996094L47.8504 5.84961L38.3004 4.7496L38.8504 0.0996094H48.5004ZM0.150391 9.34961H0.200378L2.00037 16.9496L0.150391 17.3996V9.34961ZM0.150391 34.4996L2.20038 34.2496L2.8504 39.6496L0.150391 39.9996V34.4996ZM38.8504 64.0996L39.4004 59.1996L48.9504 60.2996L48.5504 64.0996H38.8504ZM64.1504 39.9996L61.4504 40.2996L60.8004 34.8996L64.1504 34.4996V39.9996ZM64.1504 17.3996L58.4004 18.6996L56.6504 11.1496L64.1504 9.34961V17.3996ZM53.3504 30.2996L58.4504 32.2496L56.5504 37.3996L51.4004 35.3996L53.3504 30.2996ZM55.4004 49.5996L60.8504 50.1496L60.2504 55.5996L54.8504 55.0496L55.4004 49.5996ZM19.4504 2.9996L26.3504 9.34961L20.0004 16.2496L13.1004 9.89961L19.4504 2.9996ZM11.0004 19.3496L20.8504 21.8996L18.3004 31.7996L8.45038 29.1996L11.0004 19.3496ZM36.2004 24.6996L30.8004 24.1496L31.3504 18.7496L36.7504 19.2996L36.2004 24.6996ZM35.4504 36.1996L28.0504 38.5496L25.6504 31.0996L33.1004 28.7496L35.4504 36.1996ZM40.6004 33.1996L44.8004 29.7496L48.3004 33.9496L44.0504 37.3996L40.6004 33.1996ZM27.3504 57.8496L17.6504 55.6996L19.8004 45.8996L29.5504 48.0996L27.3504 57.8496ZM34.5004 53.3996L32.3004 48.4496L37.2004 46.1996L39.4504 51.1996L34.5004 53.3996Z" fill="#819A9C"/>
<path d="M54.3004 23.8998L50.5504 27.8498L46.6004 24.0998L50.3504 20.1498L54.3004 23.8998ZM52.6504 49.3998L45.2504 51.7498L42.9004 44.3498L50.3004 41.9998L52.6504 49.3998ZM3.15039 3.9998L8.15039 1.7998L10.3504 6.69981L5.40039 8.94981L3.15039 3.9998ZM42.1504 8.5498L46.5504 11.7498L43.4004 16.1498L38.9504 12.9998L42.1504 8.5498ZM11.1004 35.2998L15.4504 38.4498L12.3004 42.8498L7.90039 39.6498L11.1004 35.2998ZM10.3004 51.6498L8.75037 47.0498L13.3504 45.4498L14.9004 50.0998L10.3004 51.6498Z" fill="#8EABAD"/>
<path d="M46.7504 11.7002C52.7837 11.4335 58.5837 12.3668 64.1504 14.5002V17.4502L62.4004 16.7002C60.5337 15.9002 58.6337 15.2835 56.7004 14.8502L54.2504 14.3502C50.9504 13.8169 47.6004 13.7502 44.2004 14.1502C40.9337 14.5502 37.5837 15.4002 34.1504 16.7002L32.1504 17.4502C29.4837 18.7502 26.767 19.6835 24.0004 20.2502C17.367 21.6502 10.4337 21.1002 3.20038 18.6002L0.150391 17.4502V14.5002L4.6004 15.8502C8.13374 16.7502 11.6004 17.2669 15.0004 17.4002L20.5004 17.2502L24.0004 16.8002L24.6004 16.7002C27.1671 16.2002 29.6837 15.4668 32.1504 14.5002C37.1504 12.8002 42.017 11.8669 46.7504 11.7002ZM38.7004 7.90019L41.9004 3.4502L46.3004 6.65019L43.1504 11.0502L38.7004 7.90019Z" fill="#D7C9A8"/>
<path d="M64.1504 14.5004C58.5837 12.367 52.7837 11.4337 46.7504 11.7004C48.8504 9.43373 50.667 6.96705 52.2004 4.30038L53.5504 1.90039H64.1504V14.5004ZM20.5004 17.2504L15.0004 17.4004L15.4504 12.9504L20.8504 13.5004L20.5004 17.2504ZM4.6004 15.8504L0.150391 14.5004V1.90039H9.6004L7.6004 7.40039C6.83374 10.4004 5.83374 13.2171 4.6004 15.8504ZM29.7504 8.80038L24.4004 9.65039L23.5504 4.30038L28.9004 3.45039L29.7504 8.80038Z" fill="#ECDCB8"/>
<path d="M64.1504 1.89961H53.5504H9.6004H0.150391V0.0996094H64.1504V1.89961Z" fill="#FCEBC4"/>
<path d="M46.7496 11.7004C42.0162 11.8671 37.1496 12.8004 32.1496 14.5004C29.6829 15.467 27.1663 16.2004 24.5996 16.7004L23.9996 16.8004L20.4996 17.2504L20.8496 13.5004L15.4496 12.9504L14.9996 17.4004C11.5996 17.2671 8.13294 16.7504 4.59961 15.8504C5.83294 13.2171 6.83294 10.4004 7.59961 7.40039L9.59961 1.90039H53.5496L52.1996 4.30038C50.6663 6.96705 48.8496 9.43373 46.7496 11.7004ZM29.7496 8.80038L28.8996 3.45039L23.5496 4.30038L24.3996 9.65039L29.7496 8.80038ZM38.6996 7.90039L43.1496 11.0504L46.2996 6.65039L41.8996 3.45039L38.6996 7.90039Z" fill="#E0D1AF"/>
<path d="M0.150391 17.4497L3.20038 18.5997C10.4337 21.0997 17.367 21.6497 24.0004 20.2497C26.767 19.683 29.4837 18.7497 32.1504 17.4497L34.1504 16.6997C37.5837 15.3997 40.9337 14.5497 44.2004 14.1497C47.6004 13.7497 50.9504 13.8164 54.2504 14.3497L56.7004 14.8497C58.6337 15.2831 60.5337 15.8997 62.4004 16.6997L64.1504 17.4497V21.5997C62.0171 20.3331 59.867 19.3331 57.7004 18.5997C55.667 17.8997 53.6004 17.4497 51.5004 17.2497C46.767 16.783 41.917 17.5164 36.9504 19.4497C35.3504 20.0497 33.7504 20.7664 32.1504 21.5997L30.0504 22.7997C28.0504 23.7997 26.0337 24.5831 24.0004 25.1497L21.1004 25.7997C14.6671 26.7997 7.98375 25.5497 1.05042 22.0497L0.150391 21.5997V17.4497Z" fill="black" fill-opacity="0.101961"/>
</svg>

