<svg xmlns="http://www.w3.org/2000/svg" viewBox="0 0 64 64" fill="none">
<path d="M27.1 56.65L29.3 61.6L34.25 59.4L32 54.4L27.1 56.65ZM54.35 0.100006L52.2 4.30001C46.6667 13.9333 37.5167 20.7167 24.75 24.65L24.8 24.7C14.3 27.3 6.08336 32.85 0.150024 41.35V23.25L2.90002 19.1C4.93336 15.6 6.50004 11.7 7.60004 7.40001C8.40004 4.83334 9.33336 2.40001 10.4 0.100006H54.35ZM10.4 64.1C16.3667 50.9667 26.15 42.7167 39.75 39.35L39.7 39.3C50.4333 35.9667 58.5834 30.6167 64.15 23.25V41.35C61.15 45.6833 58.7334 50.7667 56.9 56.6C56.2334 59.2667 55.3834 61.7667 54.35 64.1H10.4ZM52.45 26.85L50.55 32L45.4 30L47.35 24.9L52.45 26.85ZM49.25 49.6L48.7 55.05L54.1 55.6L54.7 50.15L49.25 49.6ZM41.9 3.45001L38.7 7.90001L43.15 11.05L46.3 6.65001L41.9 3.45001ZM29.75 8.80001L28.9 3.45001L23.55 4.30001L24.4 9.65001L29.75 8.80001ZM20.85 13.5L15.45 12.95L14.9 18.35L20.3 18.9L20.85 13.5ZM13.55 38.45L10.4 42.85L6 39.65L9.20001 35.3L13.55 38.45Z" fill="#E0D1AF"/>
<path d="M0.150024 41.35C6.08336 32.85 14.3 27.3 24.8 24.7L24.75 24.65C37.5167 20.7167 46.6667 13.9333 52.2 4.30001L54.35 0.100006H64.15V23.25C58.5834 30.6167 50.4333 35.9667 39.7 39.3L39.75 39.35C26.15 42.7167 16.3667 50.9667 10.4 64.1H0.150024V41.35ZM10.4 0.100006C9.33336 2.40001 8.40004 4.83334 7.60004 7.40001C6.50004 11.7 4.93336 15.6 2.90002 19.1L0.150024 23.25V0.100006H10.4ZM55.35 21.05L59.1 17.1L55.15 13.35L51.4 17.3L55.35 21.05ZM52.45 26.85L47.35 24.9L45.4 30L50.55 32L52.45 26.85ZM64.15 41.35V64.1H54.35C55.3834 61.7667 56.2334 59.2667 56.9 56.6C58.7334 50.7667 61.15 45.6833 64.15 41.35ZM49.25 49.6L54.7 50.15L54.1 55.6L48.7 55.05L49.25 49.6ZM29.75 8.80001L24.4 9.65001L23.55 4.30001L28.9 3.45001L29.75 8.80001ZM13.55 38.45L9.20001 35.3L6 39.65L10.4 42.85L13.55 38.45ZM35.2 30.3L38.65 34.5L42.9 31.05L39.4 26.85L35.2 30.3ZM14.9 50.1L13.35 45.45L8.75 47.05L10.3 51.65L14.9 50.1Z" fill="#ECDCB8"/>
<path d="M14.9 50.1L10.3 51.65L8.75 47.05L13.35 45.45L14.9 50.1ZM55.35 21.05L51.4 17.3L55.15 13.35L59.1 17.1L55.35 21.05ZM35.2 30.3L39.4 26.85L42.9 31.05L38.65 34.5L35.2 30.3Z" fill="#F3E2BE"/>
<path d="M41.9 3.45001L46.3 6.65001L43.15 11.05L38.7 7.90001L41.9 3.45001ZM20.85 13.5L20.3 18.9L14.9 18.35L15.45 12.95L20.85 13.5ZM27.1 56.65L32 54.4L34.25 59.4L29.3 61.6L27.1 56.65Z" fill="#D7C9A8"/>
</svg>