
<svg  viewBox="0 0 65 65" fill="none" xmlns="http://www.w3.org/2000/svg">
<path d="M48.5004 0.0996094H64.1504V9.34961L56.6504 11.1496L58.4004 18.6996L64.1504 17.3996V34.4996L60.8004 34.8996L61.4504 40.2996L64.1504 39.9996V64.0996H48.5504L48.9504 60.2996L39.4004 59.1996L38.8504 64.0996H0.150391V39.9996L2.8504 39.6496L2.20038 34.2496L0.150391 34.4996V17.3996L2.00037 16.9496L0.200378 9.34961H0.150391V0.0996094H38.8504L38.3004 4.7496L47.8504 5.84961L48.5004 0.0996094ZM46.5504 11.7496L42.1504 8.54962L38.9504 12.9996L43.4004 16.1496L46.5504 11.7496ZM44.0504 37.3996L48.3004 33.9496L44.8004 29.7496L40.6004 33.1996L44.0504 37.3996ZM50.3504 20.1496L46.6004 24.0996L50.5504 27.8496L54.3004 23.8996L50.3504 20.1496ZM51.4004 35.3996L56.5504 37.3996L58.4504 32.2496L53.3503 30.2996L51.4004 35.3996ZM19.4504 2.9996L13.1004 9.8996L20.0004 16.2496L26.3504 9.34961L19.4504 2.9996ZM3.15039 3.9996L5.40039 8.94962L10.3504 6.69962L8.15039 1.79962L3.15039 3.9996ZM15.4504 38.4496L11.1004 35.2996L7.90039 39.6496L12.3004 42.8496L15.4504 38.4496ZM30.8004 24.1496L36.2004 24.6996L36.7504 19.2996L31.3504 18.7496L30.8004 24.1496ZM28.0504 38.5496L35.4504 36.1996L33.1004 28.7496L25.6504 31.0996L28.0504 38.5496ZM8.45038 29.1996L18.3004 31.7996L20.8504 21.8996L11.0004 19.3496L8.45038 29.1996ZM14.9004 50.0996L13.3504 45.4496L8.75037 47.0496L10.3004 51.6496L14.9004 50.0996ZM34.5004 53.3996L39.4504 51.1996L37.2004 46.1996L32.3004 48.4496L34.5004 53.3996ZM27.3504 57.8496L29.5504 48.0996L19.8004 45.8996L17.6504 55.6996L27.3504 57.8496ZM60.8503 50.1496L55.4004 49.5996L54.8503 55.0496L60.2504 55.5996L60.8503 50.1496ZM2.80042 62.3996L8.15039 61.5496L7.30042 56.1996L1.95038 57.0496L2.80042 62.3996ZM42.9004 44.3496L45.2504 51.7496L52.6504 49.3996L50.3004 41.9996L42.9004 44.3496Z" fill="#BB5E44"/>
<path d="M42.9004 44.3496L50.3004 41.9996L52.6504 49.3996L45.2504 51.7496L42.9004 44.3496ZM48.5004 0.0996094L47.8504 5.84961L38.3004 4.7496L38.8504 0.0996094H48.5004ZM0.150391 9.34961H0.200378L2.00037 16.9496L0.150391 17.3996V9.34961ZM0.150391 34.4996L2.20038 34.2496L2.8504 39.6496L0.150391 39.9996V34.4996ZM38.8504 64.0996L39.4004 59.1996L48.9504 60.2996L48.5504 64.0996H38.8504ZM64.1504 39.9996L61.4504 40.2996L60.8004 34.8996L64.1504 34.4996V39.9996ZM64.1504 17.3996L58.4004 18.6996L56.6504 11.1496L64.1504 9.34961V17.3996ZM46.5504 11.7496L43.4004 16.1496L38.9504 12.9996L42.1504 8.54962L46.5504 11.7496ZM51.4004 35.3996L53.3503 30.2996L58.4504 32.2496L56.5504 37.3996L51.4004 35.3996ZM3.15039 3.9996L8.15039 1.79962L10.3504 6.69962L5.40039 8.94962L3.15039 3.9996ZM8.45038 29.1996L11.0004 19.3496L20.8504 21.8996L18.3004 31.7996L8.45038 29.1996ZM28.0504 38.5496L25.6504 31.0996L33.1004 28.7496L35.4504 36.1996L28.0504 38.5496ZM30.8004 24.1496L31.3504 18.7496L36.7504 19.2996L36.2004 24.6996L30.8004 24.1496ZM27.3504 57.8496L17.6504 55.6996L19.8004 45.8996L29.5504 48.0996L27.3504 57.8496ZM34.5004 53.3996L32.3004 48.4496L37.2004 46.1996L39.4504 51.1996L34.5004 53.3996ZM14.9004 50.0996L10.3004 51.6496L8.75037 47.0496L13.3504 45.4496L14.9004 50.0996Z" fill="#C46247"/>
<path d="M50.3492 20.15L54.2993 23.9L50.5493 27.85L46.5992 24.1L50.3492 20.15ZM44.0493 37.4L40.5992 33.2L44.7993 29.75L48.2993 33.95L44.0493 37.4ZM19.4492 3L26.3492 9.35001L19.9992 16.25L13.0992 9.89999L19.4492 3ZM15.4492 38.45L12.2993 42.85L7.89923 39.65L11.0992 35.3L15.4492 38.45ZM2.79926 62.4L1.94922 57.05L7.29926 56.2L8.14923 61.55L2.79926 62.4ZM60.8492 50.15L60.2492 55.6L54.8492 55.05L55.3992 49.6L60.8492 50.15Z" fill="#B15940"/>
</svg>

