
<svg  viewBox="0 0 65 65" fill="none" xmlns="http://www.w3.org/2000/svg">
<path d="M58.1003 0.0996094L55.1003 3.09961H41.3004L44.3004 0.0996094H58.1003ZM61.1504 27.5496L64.1504 24.5496V64.0996H24.6003L27.6003 61.0996H61.1504V27.5496ZM0.150391 58.0496V44.2496L3.15039 41.2496V55.0496L0.150391 58.0496ZM0.150391 14.0496V0.0996094H14.1003L11.1003 3.09961H3.15039V11.0496L0.150391 14.0496Z" fill="#DEF6FF"/>
<path d="M0.150391 14.0496L3.15039 11.0496V41.2496L0.150391 44.2496V14.0496ZM55.1003 3.09961L58.1003 0.0996094H64.1504V24.5496L61.1504 27.5496V3.09961H55.1003ZM44.3004 0.0996094L41.3004 3.09961H11.1003L14.1003 0.0996094H44.3004ZM24.6003 64.0996H0.150391V58.0496L3.15039 55.0496V61.0996H27.6003L24.6003 64.0996Z" fill="white"/>
<path d="M8.45044 25.3L8.15039 22.05L11.4504 21.75L11.7504 25L8.45044 25.3ZM29.0004 11L24.7004 10.55L25.2004 6.25L29.5004 6.70001L29.0004 11ZM51.0004 55.3L50.0004 49.35L55.9004 48.35L56.9004 54.3L51.0004 55.3ZM36.3004 57.1V54.7H38.7004V57.1H36.3004Z" fill="white" fill-opacity="0.2"/>
<path d="M52.0007 43.6996L52.3507 39.7996L56.2507 40.0996L55.9008 43.9996L52.0007 43.6996ZM42.3008 48.4496L45.8507 48.9996L45.2507 52.5496L41.7008 51.9996L42.3008 48.4496ZM20.3507 11.7996L21.2008 19.7996L13.2008 20.6496L12.3507 12.6496L20.3507 11.7996ZM9.95081 14.2496H7.05078V11.3496H9.95081V14.2496Z" fill="white" fill-opacity="0.4"/>
</svg>

