
<svg  viewBox="0 0 65 65" fill="none" xmlns="http://www.w3.org/2000/svg">
<path d="M64.1504 12.3996L63.6004 11.7996L60.6004 21.1496L64.1504 20.3996V33.0496L57.9004 34.2996L64.1504 41.3496V49.7496L61.2504 52.1496L64.1504 53.2496V64.0996H40.0004L41.0504 60.8996L31.4004 62.8496L32.5004 64.0996H0.150391V53.2496L6.40039 55.6496L4.80042 45.8996L0.150391 49.7496V41.2996L0.450378 41.6496L3.6004 32.3496L0.150391 33.0496V20.3996L6.15039 19.0996L0.150391 12.4496V0.0996094H32.5004L37.9004 6.19961L40.0004 0.0996094H64.1504V12.3996ZM55.3004 11.9496L52.8504 2.44961L45.8504 9.34961L55.3004 11.9496ZM57.9004 3.19961L59.1504 9.19961L63.7004 5.14961L57.9004 3.19961ZM40.8504 32.6996L41.2504 26.5996L35.7504 29.3496L40.8504 32.6996ZM47.2504 17.1496L52.3004 20.4496L52.7004 14.3496L47.2504 17.1496ZM51.0504 36.0496L54.2004 26.7496L44.5504 28.6996L51.0504 36.0496ZM43.6504 57.1496L44.0004 51.0496L38.5004 53.7996L43.6504 57.1496ZM52.4004 51.2496L48.1004 60.0996L57.9004 59.3996L52.4004 51.2496ZM55.9004 47.3496L56.3004 41.2496L50.8004 43.9496L55.9004 47.3496ZM20.0504 8.59961L24.6004 4.54961L18.8004 2.59961L20.0504 8.59961ZM9.40039 10.2996L14.3004 1.79961H4.50037L9.40039 10.2996ZM28.4004 24.3496L23.8004 33.0496L33.6504 32.6996L28.4004 24.3496ZM17.2004 28.9496L8.90039 23.6996L8.55042 33.5496L17.2004 28.9496ZM7.90039 15.2996L11.4504 20.2496L14.0504 14.6996L7.90039 15.2996ZM27.1504 20.3996L33.2504 20.7496L30.5004 15.2996L27.1504 20.3996ZM24.8004 11.7996L15.1504 13.7496L21.6504 21.0996L24.8004 11.7996ZM22.9504 63.5496L26.0504 54.2496L16.4004 56.1996L22.9504 63.5496ZM33.7004 12.9996L38.6004 21.4996L43.5004 12.9996H33.7004ZM28.1004 53.5996L34.2004 53.9496L31.5004 48.4996L28.1004 53.5996ZM29.4504 40.4496L35.5004 40.7496L32.7504 35.2996L29.4504 40.4496ZM14.6004 57.6496L8.80042 55.6996L10.0504 61.6996L14.6004 57.6496ZM7.80042 40.0496L11.8504 44.5996L13.8004 38.7996L7.80042 40.0496ZM38.3004 38.6496L38.0004 48.4996L46.6504 43.8996L38.3004 38.6496ZM17.0504 47.7496L25.1504 42.1996L16.3004 37.9496L17.0504 47.7496Z" fill="#2ECC71"/>
<path d="M64.1504 20.3998L60.6004 21.1498L63.6004 11.7998L64.1504 12.3998V20.3998ZM0.150391 12.4498L6.15039 19.0998L0.150391 20.3998V12.4498ZM40.8504 32.6998L35.7504 29.3498L41.2504 26.5998L40.8504 32.6998ZM33.7004 12.9998H43.5004L38.6004 21.4998L33.7004 12.9998ZM22.9504 63.5498L16.4004 56.1998L26.0504 54.2498L22.9504 63.5498ZM14.6004 57.6498L10.0504 61.6998L8.80042 55.6998L14.6004 57.6498Z" fill="#2ABB67"/>
<path d="M40.0004 0.0996094L37.9004 6.19961L32.5004 0.0996094H40.0004ZM0.150391 33.0496L3.6004 32.3496L0.450378 41.6496L0.150391 41.2996V33.0496ZM32.5004 64.0996L31.4004 62.8496L41.0504 60.8996L40.0004 64.0996H32.5004ZM64.1504 41.3496L57.9004 34.2996L64.1504 33.0496V41.3496ZM57.9004 3.19961L63.7004 5.14961L59.1504 9.19961L57.9004 3.19961ZM55.3004 11.9496L45.8504 9.34961L52.8504 2.44961L55.3004 11.9496ZM51.0504 36.0496L44.5504 28.6996L54.2004 26.7496L51.0504 36.0496ZM47.2504 17.1496L52.7004 14.3496L52.3004 20.4496L47.2504 17.1496ZM52.4004 51.2496L57.9004 59.3996L48.1004 60.0996L52.4004 51.2496ZM43.6504 57.1496L38.5004 53.7996L44.0004 51.0496L43.6504 57.1496ZM20.0504 8.59961L18.8004 2.59961L24.6004 4.54961L20.0504 8.59961ZM7.90039 15.2996L14.0504 14.6996L11.4504 20.2496L7.90039 15.2996ZM17.2004 28.9496L8.55042 33.5496L8.90039 23.6996L17.2004 28.9496ZM28.4004 24.3496L33.6504 32.6996L23.8004 33.0496L28.4004 24.3496ZM24.8004 11.7996L21.6504 21.0996L15.1504 13.7496L24.8004 11.7996ZM28.1004 53.5996L31.5004 48.4996L34.2004 53.9496L28.1004 53.5996ZM7.80042 40.0496L13.8004 38.7996L11.8504 44.5996L7.80042 40.0496ZM17.0504 47.7496L16.3004 37.9496L25.1504 42.1996L17.0504 47.7496ZM38.3004 38.6496L46.6504 43.8996L38.0004 48.4996L38.3004 38.6496Z" fill="#2CC46C"/>
<path d="M0.150391 49.7498L4.80042 45.8998L6.40039 55.6498L0.150391 53.2498V49.7498ZM64.1504 53.2498L61.2504 52.1498L64.1504 49.7498V53.2498ZM55.9004 47.3498L50.8004 43.9498L56.3004 41.2498L55.9004 47.3498ZM9.40039 10.2998L4.50037 1.7998H14.3004L9.40039 10.2998ZM27.1504 20.3998L30.5004 15.2998L33.2504 20.7498L27.1504 20.3998ZM29.4504 40.4498L32.7504 35.2998L35.5004 40.7498L29.4504 40.4498Z" fill="#30D475"/>
</svg>

