
  <svg
    width="65"
    height="65"
    viewBox="0 0 65 65"
    fill="none"
    xmlns="http://www.w3.org/2000/svg"
  >
    <path
      d="M64.1504 48.7996V64.0996H48.8503L64.1504 48.7996ZM14.1003 64.0996H0.150391V48.9996L48.6003 0.0996094H64.1504V14.0496L14.1003 64.0996ZM0.150391 14.0496V0.0996094H14.1003L0.150391 14.0496ZM49.1003 10.3996L47.0004 6.74961L43.3503 8.89961L45.4504 12.5496L49.1003 10.3996ZM57.8503 11.5496V9.24961H55.6504L55.6003 11.4996L57.8503 11.5496ZM45.5004 20.8496L49.1504 22.9996L51.3004 19.2996L47.6504 17.1496L45.5004 20.8496ZM14.8503 49.5996V47.2996H12.6504L12.6003 49.5496L14.8503 49.5996Z"
      fill="#B8EBFC"
    />
    <path
      d="M64.1504 14.0496V38.7996L38.8503 64.0996H14.1003L64.1504 14.0496ZM0.150391 38.7996V14.0496L14.1003 0.0996094H38.8503L0.150391 38.7996ZM28.3503 5.04961H26.1504L26.1003 7.29961L28.3503 7.34961V5.04961ZM35.3503 59.4496L37.5004 55.7496L33.8503 53.5996L31.7004 57.2996L35.3503 59.4496ZM53.6003 44.2496L55.8503 44.2996V41.9996H53.6504L53.6003 44.2496ZM54.7004 35.7996L50.5004 35.7496L50.4504 39.9996L54.7004 40.0996V35.7996ZM12.6003 20.9496L10.5004 17.1996L6.80042 19.2996L8.95044 22.9996L12.6003 20.9496ZM13.7504 9.24961L11.6003 12.9496L15.2504 15.0996L17.4004 11.3996L13.7504 9.24961ZM8.45044 14.1996V11.8996H6.25037L6.20044 14.1496L8.45044 14.1996Z"
      fill="#B0E9FC"
    />
    <path
      d="M57.8496 11.55L55.5996 11.5L55.6497 9.25H57.8496V11.55ZM49.0996 10.4L45.4497 12.55L43.3496 8.9L46.9996 6.75L49.0996 10.4ZM45.4996 20.85L47.6497 17.15L51.2997 19.3L49.1497 23L45.4996 20.85ZM14.8496 49.6L12.5996 49.55L12.6497 47.3H14.8496V49.6Z"
      fill="#C6EFFC"
    />
    <path
      d="M28.3491 5.0498V7.3498L26.0991 7.29981L26.1492 5.0498H28.3491ZM54.6992 35.7998V40.0998L50.4492 39.9998L50.4991 35.7498L54.6992 35.7998ZM53.5991 44.2498L53.6492 41.9998H55.8491V44.2998L53.5991 44.2498ZM35.3491 59.4498L31.6992 57.2998L33.8491 53.5998L37.4991 55.7498L35.3491 59.4498ZM8.44922 14.1998L6.19922 14.1498L6.24915 11.8998H8.44922V14.1998ZM13.7491 9.2498L17.3992 11.3998L15.2491 15.0998L11.5991 12.9498L13.7491 9.2498ZM12.5991 20.9498L8.94922 22.9998L6.79919 19.2998L10.4991 17.1998L12.5991 20.9498Z"
      fill="#BFEDFC"
    />
    <path
      d="M64.1504 38.7996V48.7996L48.8503 64.0996H38.8503L64.1504 38.7996ZM0.150391 48.9996V38.7996L38.8503 0.0996094H48.6003L0.150391 48.9996Z"
      fill="#A6E6FC"
    />
  </svg>

