
<svg viewBox="0 0 64 64" fill="none" xmlns="http://www.w3.org/2000/svg">
<path d="M10.2 6.60001L8 1.7L3 3.89999L5.25 8.85001L10.2 6.60001ZM0 17.3L1.84998 16.85L0.0499878 9.25H0V0H38.7L38.15 4.64999L47.7 5.75L48.35 0H64V9.25L56.5 11.05L58.25 18.6L64 17.3V34.4L60.65 34.8L61.3 40.2L64 39.9V64H48.4L48.8 60.2L39.25 59.1L38.7 64H0V39.9L2.70001 39.55L2.04999 34.15L0 34.4V17.3ZM10.95 35.2L7.75 39.55L12.15 42.75L15.3 38.35L10.95 35.2ZM10.85 19.25L8.29999 29.1L18.15 31.7L20.7 21.8L10.85 19.25ZM42 8.45L38.8 12.9L43.25 16.05L46.4 11.65L42 8.45ZM31.2 18.65L30.65 24.05L36.05 24.6L36.6 19.2L31.2 18.65ZM25.5 31L27.9 38.45L35.3 36.1L32.95 28.65L25.5 31ZM19.3 2.89999L12.95 9.8L19.85 16.15L26.2 9.25L19.3 2.89999ZM46.45 24L50.4 27.75L54.15 23.8L50.2 20.05L46.45 24ZM48.15 33.85L44.65 29.65L40.45 33.1L43.9 37.3L48.15 33.85ZM56.4 37.3L58.3 32.15L53.2 30.2L51.25 35.3L56.4 37.3ZM60.1 55.5L60.7 50.05L55.25 49.5L54.7 54.95L60.1 55.5ZM45.1 51.65L52.5 49.3L50.15 41.9L42.75 44.25L45.1 51.65ZM39.3 51.1L37.05 46.1L32.15 48.35L34.35 53.3L39.3 51.1ZM14.75 50L13.2 45.35L8.59998 46.95L10.15 51.55L14.75 50ZM1.79999 56.95L2.65002 62.3L8 61.45L7.15002 56.1L1.79999 56.95ZM29.4 48L19.65 45.8L17.5 55.6L27.2 57.75L29.4 48Z" fill="#89A4A6"/>
<path d="M10.2 6.6002L5.25 8.8502L3 3.90019L8 1.7002L10.2 6.6002ZM10.95 35.2002L15.3 38.3502L12.15 42.7502L7.75 39.5502L10.95 35.2002ZM42 8.4502L46.4 11.6502L43.25 16.0502L38.8 12.9002L42 8.4502ZM46.45 24.0002L50.2 20.0502L54.15 23.8002L50.4 27.7502L46.45 24.0002ZM45.1 51.6502L42.75 44.2502L50.15 41.9002L52.5 49.3002L45.1 51.6502ZM14.75 50.0002L10.15 51.5502L8.59998 46.9502L13.2 45.3502L14.75 50.0002Z" fill="#8EABAD"/>
<path d="M0 9.25H0.0499878L1.84998 16.85L0 17.3V9.25ZM0 34.4L2.04999 34.15L2.70001 39.55L0 39.9V34.4ZM38.7 64L39.25 59.1L48.8 60.2L48.4 64H38.7ZM64 39.9L61.3 40.2L60.65 34.8L64 34.4V39.9ZM64 17.3L58.25 18.6L56.5 11.05L64 9.25V17.3ZM48.35 0L47.7 5.75L38.15 4.64999L38.7 0H48.35ZM10.85 19.25L20.7 21.8L18.15 31.7L8.29999 29.1L10.85 19.25ZM19.3 2.89999L26.2 9.25L19.85 16.15L12.95 9.8L19.3 2.89999ZM25.5 31L32.95 28.65L35.3 36.1L27.9 38.45L25.5 31ZM31.2 18.65L36.6 19.2L36.05 24.6L30.65 24.05L31.2 18.65ZM48.15 33.85L43.9 37.3L40.45 33.1L44.65 29.65L48.15 33.85ZM56.4 37.3L51.25 35.3L53.2 30.2L58.3 32.15L56.4 37.3ZM60.1 55.5L54.7 54.95L55.25 49.5L60.7 50.05L60.1 55.5ZM39.3 51.1L34.35 53.3L32.15 48.35L37.05 46.1L39.3 51.1ZM29.4 48L27.2 57.75L17.5 55.6L19.65 45.8L29.4 48ZM1.79999 56.95L7.15002 56.1L8 61.45L2.65002 62.3L1.79999 56.95Z" fill="#819A9C"/>
<path d="M0 14.4008V1.80078H9.45001L7.45001 7.30078C6.68335 10.3008 5.68335 13.1174 4.45001 15.7508L0 14.4008ZM64 1.80078V14.4008C58.4333 12.2674 52.6333 11.3341 46.6 11.6008C48.7 9.36745 50.5167 6.90078 52.05 4.20078L53.4 1.80078H64ZM14.85 17.3008L15.3 12.8508L20.7 13.4008L20.35 17.1508L14.85 17.3008ZM23.4 4.20078L28.75 3.35078L29.6 8.70078L24.25 9.55078L23.4 4.20078Z" fill="#F5FCFF"/>
<path d="M0 1.8V0H64V1.8H53.4H9.45001H0Z" fill="white"/>
<path d="M4.44922 15.7508C5.68255 13.1174 6.68255 10.3008 7.44922 7.30078L9.44922 1.80078H53.3992L52.0492 4.20078C50.5159 6.90078 48.6992 9.36745 46.5992 11.6008C41.8658 11.7675 36.9992 12.7008 31.9992 14.4008C29.5325 15.3674 27.0159 16.1008 24.4492 16.6008L23.8492 16.7008L20.3492 17.1508L20.6992 13.4008L15.2992 12.8508L14.8492 17.3008C11.4492 17.1674 7.98255 16.6508 4.44922 15.7508ZM46.1492 6.55078L41.7492 3.35078L38.5492 7.80078L42.9992 10.9508L46.1492 6.55078ZM23.3992 4.20078L24.2492 9.55078L29.5992 8.70078L28.7492 3.35078L23.3992 4.20078Z" fill="#E7F9FF"/>
<path d="M64 17.3501V21.5001C61.8667 20.2334 59.7167 19.2334 57.55 18.5001C55.5167 17.8001 53.45 17.3501 51.35 17.1501H51.3C46.5667 16.6834 41.7333 17.4168 36.8 19.3501L36.6 19.4501C35.0666 20.0168 33.5333 20.7001 32 21.5001L30.15 22.6001L29.9 22.7001C27.9 23.7001 25.8833 24.4834 23.85 25.0501L20.95 25.7001L20.8 25.7501C14.4 26.6834 7.76669 25.4168 0.900024 21.9501L0 21.5001V17.3501L3.04999 18.5001C10.2833 21.0001 17.2166 21.5501 23.85 20.1501C26.6166 19.5834 29.3333 18.6501 32 17.3501L34 16.6001C37.4333 15.3001 40.7833 14.4501 44.05 14.0501H44.1C47.4666 13.6501 50.7833 13.7168 54.05 14.2501H54.1L56.55 14.7501H56.6C58.5 15.1834 60.3833 15.8001 62.25 16.6001L64 17.3501Z" fill="black" fill-opacity="0.101961"/>
<path d="M64 17.3501L62.25 16.6001C60.3833 15.8001 58.5 15.1834 56.6 14.7501H56.55L54.1 14.2501H54.05C50.7833 13.7168 47.4666 13.6501 44.1 14.0501H44.05C40.7833 14.4501 37.4333 15.3001 34 16.6001L32 17.3501C29.3333 18.6501 26.6166 19.5834 23.85 20.1501C17.2166 21.5501 10.2833 21.0001 3.04999 18.5001L0 17.3501V14.4001L4.45001 15.7501C7.98335 16.6501 11.45 17.1668 14.85 17.3001L20.35 17.1501L23.85 16.7001L24.45 16.6001C27.0167 16.1001 29.5333 15.3668 32 14.4001C37 12.7001 41.8666 11.7668 46.6 11.6001C52.6333 11.3334 58.4333 12.2668 64 14.4001V17.3501Z" fill="#D0F2FF"/>
<path d="M46.1489 6.55058L42.9988 10.9506L38.5488 7.80058L41.7488 3.35059L46.1489 6.55058Z" fill="#D9F5FF"/>
</svg>

