
<svg viewBox="0 0 64 64" fill="none" xmlns="http://www.w3.org/2000/svg">
<path d="M64 1.8H48.15H38.5H0V0H64V1.8Z" fill="#D08F4B"/>
<path d="M64 9.25L56.5 11.05L58.25 18.6L64 17.3V34.4L60.65 34.8L61.3 40.2L64 39.9V64H48.4L48.8 60.2L39.25 59.1L38.7 64H0V39.9L2.70001 39.55L2.04999 34.15L0 34.4V17.3L1.84998 16.85L0.0499878 9.25H0V0H38.7L38.15 4.64999L47.7 5.75L48.35 0H64V9.25ZM58.3 32.15L53.2 30.2L51.25 35.3L56.4 37.3L58.3 32.15ZM19.3 2.89999L12.95 9.8L19.85 16.15L26.2 9.25L19.3 2.89999ZM60.1 55.5L60.7 50.05L55.25 49.5L54.7 54.95L60.1 55.5ZM42 8.45L38.8 12.9L43.25 16.05L46.4 11.65L42 8.45ZM10.95 35.2L7.75 39.55L12.15 42.75L15.3 38.35L10.95 35.2ZM5.25 8.85001L10.2 6.60001L8 1.7L3 3.89999L5.25 8.85001ZM2.65002 62.3L8 61.45L7.15002 56.1L1.79999 56.95L2.65002 62.3ZM10.85 19.25L8.29999 29.1L18.15 31.7L20.7 21.8L10.85 19.25ZM8.59998 46.95L10.15 51.55L14.75 50L13.2 45.35L8.59998 46.95ZM35.3 36.1L32.95 28.65L25.5 31L27.9 38.45L35.3 36.1ZM36.05 24.6L36.6 19.2L31.2 18.65L30.65 24.05L36.05 24.6ZM50.2 20.05L46.45 24L50.4 27.75L54.15 23.8L50.2 20.05ZM29.4 48L19.65 45.8L17.5 55.6L27.2 57.75L29.4 48ZM43.9 37.3L48.15 33.85L44.65 29.65L40.45 33.1L43.9 37.3ZM52.5 49.3L50.15 41.9L42.75 44.25L45.1 51.65L52.5 49.3ZM39.3 51.1L37.05 46.1L32.15 48.35L34.35 53.3L39.3 51.1Z" fill="#89A4A6"/>
<path d="M39.3 51.1L34.35 53.3L32.15 48.35L37.05 46.1L39.3 51.1ZM64 17.3L58.25 18.6L56.5 11.05L64 9.25V17.3ZM48.35 0L47.7 5.75L38.15 4.64999L38.7 0H48.35ZM0 9.25H0.0499878L1.84998 16.85L0 17.3V9.25ZM0 34.4L2.04999 34.15L2.70001 39.55L0 39.9V34.4ZM38.7 64L39.25 59.1L48.8 60.2L48.4 64H38.7ZM64 39.9L61.3 40.2L60.65 34.8L64 34.4V39.9ZM58.3 32.15L56.4 37.3L51.25 35.3L53.2 30.2L58.3 32.15ZM60.1 55.5L54.7 54.95L55.25 49.5L60.7 50.05L60.1 55.5ZM19.3 2.89999L26.2 9.25L19.85 16.15L12.95 9.8L19.3 2.89999ZM10.85 19.25L20.7 21.8L18.15 31.7L8.29999 29.1L10.85 19.25ZM2.65002 62.3L1.79999 56.95L7.15002 56.1L8 61.45L2.65002 62.3ZM36.05 24.6L30.65 24.05L31.2 18.65L36.6 19.2L36.05 24.6ZM35.3 36.1L27.9 38.45L25.5 31L32.95 28.65L35.3 36.1ZM43.9 37.3L40.45 33.1L44.65 29.65L48.15 33.85L43.9 37.3ZM29.4 48L27.2 57.75L17.5 55.6L19.65 45.8L29.4 48Z" fill="#819A9C"/>
<path d="M42 8.4502L46.4 11.6502L43.25 16.0502L38.8 12.9002L42 8.4502ZM5.25 8.8502L3 3.90019L8 1.7002L10.2 6.6002L5.25 8.8502ZM10.95 35.2002L15.3 38.3502L12.15 42.7502L7.75 39.5502L10.95 35.2002ZM8.59998 46.9502L13.2 45.3502L14.75 50.0002L10.15 51.5502L8.59998 46.9502ZM50.2 20.0502L54.15 23.8002L50.4 27.7502L46.45 24.0002L50.2 20.0502ZM52.5 49.3002L45.1 51.6502L42.75 44.2502L50.15 41.9002L52.5 49.3002Z" fill="#8EABAD"/>
<path d="M0 17.35L3.04999 18.5C5.58332 19.3667 8.08332 20 10.55 20.4L17.2 20.9L23.85 20.15C26.6166 19.5833 29.3333 18.65 32 17.35L34 16.6C36.4 15.7 38.7666 15.0167 41.1 14.55L44.05 14.05L44.75 14L54.1 14.25L56.55 14.75L57.4 14.95C59.0334 15.3833 60.65 15.9333 62.25 16.6L63.95 17.35H64V21.5C61.8667 20.2333 59.7167 19.2333 57.55 18.5C55.5167 17.8 53.45 17.35 51.35 17.15C46.6166 16.6833 41.7667 17.4167 36.8 19.35L36.6 19.45C35.0666 20.0167 33.5333 20.7 32 21.5L30.85 22.2L29.9 22.7C27.9 23.7 25.8833 24.4833 23.85 25.05L20.95 25.7L19.65 25.9C16.2834 26.2333 12.85 25.9833 9.34998 25.15C6.58331 24.45 3.76669 23.3833 0.900024 21.95L0 21.5V17.35Z" fill="black" fill-opacity="0.101961"/>
<path d="M0 17.3506V14.4006L1.40002 14.8506L4.45001 15.7506C7.98335 16.6506 11.45 17.1672 14.85 17.3006L20.35 17.1506L23.85 16.7006L24.45 16.6006C27.0167 16.1006 29.5333 15.3672 32 14.4006C34.4 13.6006 36.7666 12.9672 39.1 12.5006L46.35 11.6006H46.6L56.8 12.3506C59.2333 12.8173 61.6333 13.5006 64 14.4006V17.3506H63.95L62.25 16.6006C60.65 15.9339 59.0334 15.3839 57.4 14.9506L56.55 14.7506L54.1 14.2506L44.75 14.0006L44.05 14.0506L41.1 14.5506C38.7666 15.0172 36.4 15.7006 34 16.6006L32 17.3506C29.3333 18.6506 26.6166 19.5839 23.85 20.1506L17.2 20.9006L10.55 20.4006C8.08332 20.0006 5.58332 19.3672 3.04999 18.5006L0 17.3506Z" fill="#9F6D39"/>
<path d="M56.8 12.3508L56.5 11.0508L64 9.25078V14.4008C61.6333 13.5008 59.2333 12.8175 56.8 12.3508ZM48.15 1.80078L47.7 5.75078L38.15 4.65077L38.5 1.80078H48.15ZM0 9.25078H0.0499878L1.40002 14.8508L0 14.4008V9.25078ZM26.2 9.25078L19.85 16.1508L12.95 9.80078L19.3 2.90077L26.2 9.25078Z" fill="#B17940"/>
<path d="M64 1.80078V9.25078L56.5 11.0508L56.8 12.3508L46.6 11.6008H46.35L42 8.45078L39.1 12.5008C36.7666 12.9674 34.4 13.6008 32 14.4008C29.5333 15.3674 27.0167 16.1008 24.45 16.6008L23.85 16.7008L20.35 17.1508L14.85 17.3008C11.45 17.1674 7.98335 16.6508 4.45001 15.7508L1.40002 14.8508L0.0499878 9.25078H0V1.80078H38.5L38.15 4.65077L47.7 5.75078L48.15 1.80078H64ZM26.2 9.25078L19.3 2.90077L12.95 9.80078L19.85 16.1508L26.2 9.25078ZM5.25 11.6008L10.2 9.35078L8.04999 4.55078H7.79999L3 6.65077L5.25 11.6008Z" fill="#BB8044"/>
<path d="M5.25 11.6008L3 6.65077L7.79999 4.55078H8.04999L10.2 9.35078L5.25 11.6008ZM39.1 12.5008L42 8.45078L46.35 11.6008L39.1 12.5008Z" fill="#CD8C4A"/>
</svg>

