
<svg  viewBox="0 0 65 65" fill="none" xmlns="http://www.w3.org/2000/svg">
<path d="M39.9004 12.9496L39.7004 12.7996L31.3503 7.04962L20.0504 12.3996L19.8004 15.4496L19.0004 24.8496L29.3004 31.9496L40.6003 26.6496L41.5004 16.0496L41.6504 14.1496L39.9004 12.9496ZM0.150391 5.9996V0.0996094H8.85034L8.80042 3.79962L8.85034 3.84961L18.4004 9.4996L28.1504 3.9996L28.2004 0.0996094H41.1504L38.7504 1.79962L39.7004 10.8496L48.0004 14.5996L55.4004 9.2496L54.4504 0.199615L54.1504 0.0996094H64.1504V5.9996H61.2004L54.6003 17.0996L55.2004 18.1496L60.9504 28.3496H64.1504V39.9496L52.6003 40.0996L46.1504 51.5496L46.7504 52.5496L52.8503 62.8496L64.1504 62.7496V64.0996H54.2004L46.1504 60.4996L41.1504 64.0996H28.2504L28.3004 58.7996V56.7996L18.6504 51.1496L8.90039 56.5996L8.85034 64.0996H0.150391V62.7496L2.00037 62.6996L7.90039 52.2496L8.45044 51.1996L1.75037 39.9496H0.150391V28.3496L9.85034 28.4496L15.8503 18.3496L16.4004 17.3496L10.0504 6.09961L0.150391 5.9996ZM25.4504 32.0496L16.3004 28.4996L8.65039 34.5996L10.1003 44.3496L19.2504 47.9496L26.9504 41.7996L25.4504 32.0496ZM58.0004 31.6996L55.2504 24.1496L47.4004 22.7496L42.2004 28.8996L44.9504 36.3996L52.8004 37.8496L58.0004 31.6996ZM45.3004 47.9996V45.9996L38.5004 39.9496L29.9004 42.7496L28.0004 51.6496V53.6496L34.7504 59.6996L43.4004 56.8996L45.3004 47.9996Z" fill="#677C7E"/>
<path d="M8.85034 0.0996094H28.2004L28.1504 3.9996L18.4004 9.4996L8.85034 3.84961L8.80042 3.79962L8.85034 0.0996094ZM64.1504 7.9996V28.3496H60.9504L55.2004 18.1496L61.2004 7.9996H64.1504ZM64.1504 41.9496V62.7496L52.8503 62.8496L46.7504 52.5496L52.6003 42.0996L64.1504 41.9496ZM28.2504 64.0996H8.90039V58.5996L18.6504 53.1496L28.3004 58.7996L28.2504 64.0996ZM0.150391 62.7496V41.9496H1.75037L7.90039 52.2496L2.00037 62.6996L0.150391 62.7496ZM0.150391 28.3496V7.9996L10.0504 8.09961L15.8503 18.3496L9.85034 28.4496L0.150391 28.3496ZM19.8004 15.4496L19.9004 14.4496L31.3503 9.04962L41.5004 16.0496L40.6003 26.6496L29.3004 31.9496L19.0004 24.8496L19.8004 15.4496ZM45.3004 47.9996L43.4004 56.8996L34.7504 59.6996L28.0004 53.6496L29.9004 44.7496L38.5004 41.9496L45.3004 47.9996Z" fill="#5F7374"/>
<path d="M45.3004 48L38.5004 41.95L29.9004 44.75L28.0004 53.65V51.65L29.9004 42.75L38.5004 39.95L45.3004 46V48ZM64.1504 6V8H61.2004L55.2004 18.15L54.6003 17.1L61.2004 6H64.1504ZM64.1504 39.95V41.95L52.6003 42.1L46.7504 52.55L46.1504 51.55L52.6003 40.1L64.1504 39.95ZM8.90039 64.1H8.85034L8.90039 56.6L18.6504 51.15L28.3004 56.8V58.8L18.6504 53.15L8.90039 58.6V64.1ZM0.150391 41.95V39.95H1.75037L8.45044 51.2L7.90039 52.25L1.75037 41.95H0.150391ZM0.150391 8V6L10.0504 6.10001L16.4004 17.35L15.8503 18.35L10.0504 8.10001L0.150391 8ZM19.8004 15.45L20.0504 12.4L31.3503 7.05002L39.7004 12.8V12.85L39.9004 12.95L41.6504 14.15L41.5004 16.05L31.3503 9.05002L19.9004 14.45L19.8004 15.45Z" fill="#5B6F70"/>
<path d="M41.1504 0.0996094H54.1504L54.4504 0.199615L55.4004 9.2496L48.0004 14.5996L39.7004 10.8496L38.7504 1.79962L41.1504 0.0996094ZM54.2004 64.0996H41.1504L46.1504 60.4996L54.2004 64.0996ZM58.0004 31.6996L52.8004 37.8496L44.9504 36.3996L42.2004 28.8996L47.4004 22.7496L55.2504 24.1496L58.0004 31.6996ZM25.4504 32.0496L26.9504 41.7996L19.2504 47.9496L10.1003 44.3496L8.65039 34.5996L16.3004 28.4996L25.4504 32.0496Z" fill="#6C8385"/>
<path d="M39.8992 12.9498L39.6992 12.8498V12.7998L39.8992 12.9498Z" fill="#AD7E6E"/>
</svg>

