<svg viewBox="0 0 65 65" fill="none" xmlns="http://www.w3.org/2000/svg">
<path d="M0.150391 6.49961L3.90039 12.8496L2.70038 14.9496H0.150391V6.49961V0.0996094H3.90039L0.150391 6.49961ZM0.150391 19.2996L3.90039 25.6496L0.950378 30.7496H7.8504V35.0996H1.95038L3.90039 38.4496L0.150391 44.8996L3.90039 51.2496L1.95038 54.5996H0.150391V44.8996V19.2996ZM9.70038 54.5996H17.4004V58.9496H9.70038V54.5996ZM0.900391 58.9496L3.90039 64.0496H0.150391V58.9496H0.900391ZM64.1504 64.0496H60.4004L64.1504 57.6996L60.4004 51.2496L64.1504 44.8996L61.0004 39.4496H64.1504V44.8996V57.6996V64.0496ZM62.4004 35.0996L64.1504 32.0996L60.4004 25.6496L64.1504 19.2996L60.4004 12.8496L64.1504 6.49961L60.4004 0.0996094H64.1504V6.49961V19.2996V32.0996V35.0996H62.4004ZM37.3504 9.09961V5.09961H50.8004V9.09961H37.3504ZM44.0004 22.9996H57.6504V27.3496H44.0004V22.9996ZM30.5004 46.0996V50.4496H22.8004V46.0996H30.5004Z" fill="#DBD2C7"/>
<path d="M30.5004 46.0996H22.8004V50.4496H30.5004H55.1004V46.0996H30.5004ZM2.70038 14.9496L3.90039 12.8496L0.150391 6.49961L3.90039 0.0996094H60.4004L64.1504 6.49961L60.4004 12.8496L64.1504 19.2996L60.4004 25.6496L64.1504 32.0996L62.4004 35.0996H44.5504V39.4496H61.0004L64.1504 44.8996L60.4004 51.2496L64.1504 57.6996L60.4004 64.0496H64.1504V64.0996H0.150391V64.0496H3.90039L0.900391 58.9496H9.70038H17.4004V54.5996H9.70038H1.95038L3.90039 51.2496L0.150391 44.8996L3.90039 38.4496L1.95038 35.0996H7.8504H22.5504V30.7496H7.8504H0.950378L3.90039 25.6496L0.150391 19.2996H42.2504V14.9496H2.70038ZM37.3504 5.09961H27.9004V9.09961H37.3504H50.8004H55.9004V5.09961H50.8004H37.3504ZM44.0004 27.3496H57.6504V22.9996H44.0004H19.0504V27.3496H44.0004ZM39.2004 53.5996V57.9496H48.7504V53.5996H39.2004Z" fill="#F0EADA"/>
<path d="M39.2004 53.5996H48.7504V57.9496H39.2004V53.5996ZM0.150391 14.9496H2.70038H42.2504V19.2996H0.150391V14.9496ZM7.8504 30.7496H22.5504V35.0996H7.8504V30.7496ZM1.95038 54.5996H9.70038V58.9496H0.900391H0.150391V54.5996H1.95038ZM61.0004 39.4496H44.5504V35.0996H62.4004H64.1504V39.4496H61.0004ZM37.3504 9.09961H27.9004V5.09961H37.3504V9.09961ZM50.8004 5.09961H55.9004V9.09961H50.8004V5.09961ZM44.0004 27.3496H19.0504V22.9996H44.0004V27.3496ZM30.5004 50.4496V46.0996H55.1004V50.4496H30.5004Z" fill="#BFB1A0"/>
</svg>
