
<svg viewBox="0 0 64 64" fill="none" xmlns="http://www.w3.org/2000/svg">
<path d="M31.9 27.25L32.8 3.2L20.4 2.75L19.9 16.25L16 15.8L15.5 0H35.3L36.1 26.95L31.9 27.25ZM18.65 47.85L18.1 62.3L30.5 62.8L30.65 58.9L35.15 58.6L35.3 64H15.5L15.05 47.4L18.65 47.85ZM3.79999 64H0V0H3.79999L4.70001 32.15L12.1 31.95L11.6 36.4L3 36.65L3.79999 64ZM38.7 37.85L38.35 33.4L48 33.1L47.85 27.8L50.4 27.95L49.75 60.3L46.95 60.15L46.25 37.65L38.7 37.85ZM57.25 3.7L57.45 0H64V64H57.45L57.5 63.25L61.4 63.3L62.6 3.8L57.25 3.7Z" fill="#B47B41"/>
<path d="M57.25 3.7L62.6 3.8L61.4 63.3L57.5 63.25L49.7 63.05L49.75 60.3L50.4 27.95L50.9 3.55L57.25 3.7ZM19.9 16.25L20.4 2.75L32.8 3.2L31.9 27.25L30.65 58.9L30.5 62.8L18.1 62.3L18.65 47.85L19.9 16.25ZM36.1 26.95L35.3 0H47.05L47.85 27.8L48 33.1L38.35 33.4L36.25 33.45L36.1 26.95ZM15.5 0L16 15.8L16.45 31.8L12.1 31.95L4.70001 32.15L3.79999 0H15.5ZM13.6 7.55L7.34998 7.45L7 28.65L13.3 28.8L13.6 7.55ZM3.79999 64L3 36.65L11.6 36.4L14.7 36.3L15.05 47.4L15.5 64H3.79999ZM38.7 37.85L46.25 37.65L46.95 60.15L47.05 64H35.3L35.15 58.6L34.55 37.95L38.7 37.85ZM58.6 14.1L52.35 13.85L51.55 35.1L57.8 35.35L58.6 14.1ZM26.8 31.6L20.55 31.95L21.8 53.15L28.05 52.85L26.8 31.6ZM43.35 62.3L44.15 41.05L37.9 40.8L37.1 62.05L43.35 62.3Z" fill="#C48647"/>
<path d="M43.35 62.3002L37.1 62.0502L37.9 40.8002L44.15 41.0502L43.35 62.3002ZM13.6 7.5502L13.3 28.8002L7 28.6502L7.34998 7.4502L13.6 7.5502Z" fill="#CB8B49"/>
<path d="M31.8997 27.25L36.0996 26.95L36.2496 33.45L38.3496 33.4L38.6996 37.85L34.5496 37.95L35.1497 58.6L30.6497 58.9L31.8997 27.25ZM15.9996 15.8L19.8997 16.25L18.6497 47.85L15.0496 47.4L14.6996 36.3L11.5996 36.4L12.0996 31.95L16.4496 31.8L15.9996 15.8ZM46.9496 60.15L49.7496 60.3L49.6996 63.05L57.4996 63.25L57.4496 64H47.0496L46.9496 60.15ZM50.3997 27.95L47.8496 27.8L47.0496 0H57.4496L57.2496 3.7L50.8997 3.55L50.3997 27.95Z" fill="#AA743D"/>
<path d="M26.7988 31.6006L28.0488 52.8506L21.7988 53.1506L20.5488 31.9506L26.7988 31.6006ZM58.5988 14.1006L57.7989 35.3506L51.5488 35.1006L52.3488 13.8506L58.5988 14.1006Z" fill="#D08E4A"/>
</svg>

