
<svg viewBox="0 0 64 64" fill="none" xmlns="http://www.w3.org/2000/svg">
<path d="M64 63.95H60.25L64 57.6L60.25 51.15L64 44.8L60.25 38.35L64 32L60.25 25.55L64 19.2L60.25 12.75L64 6.4L60.25 0H64V6.4V19.2V32V44.8V57.6V63.95ZM3.75 0L0 6.4L3.75 12.75L0 19.2L3.75 25.55L0 32L3.75 38.35L0 44.8L3.75 51.15L0 57.6L3.75 63.95H0V57.6V44.8V32V19.2V6.4V0H3.75Z" fill="#7B5632"/>
<path d="M60.25 0L64 6.4L60.25 12.75L64 19.2L60.25 25.55L64 32L60.25 38.35L64 44.8L60.25 51.15L64 57.6L60.25 63.95H64V64H55.2V54.45V46.75H50.85V54.45V64H21.35V54.45H17V64H0V63.95H3.75L0 57.6L3.75 51.15L0 44.8L3.75 38.35L0 32L3.75 25.55L0 19.2L3.75 12.75L0 6.4L3.75 0H8.84998V19.6V33.25V42.8H13.2V33.25V19.6V0H38.85V19.6H43.2V0H60.25ZM55.2 31.4V6.8H50.85V31.4V39.1H55.2V31.4ZM32 23.05V9.4H27.65V23.05V60H32V23.05ZM21.35 4H17V46.1H21.35V4ZM38.85 47V54.7H43.2V47V32.3H38.85V47Z" fill="#91673F"/>
<path d="M38.8496 47V32.3H43.1996V47H38.8496ZM43.1996 0V19.6H38.8496V0H43.1996ZM13.1996 0V19.6H8.84961V0H13.1996ZM13.1996 33.25V42.8H8.84961V33.25H13.1996ZM16.9996 64V54.45H21.3496V64H16.9996ZM50.8496 64V54.45H55.1996V64H50.8496ZM50.8496 31.4V6.8H55.1996V31.4H50.8496ZM31.9996 23.05V60H27.6497V23.05H31.9996ZM21.3496 4V46.1H16.9996V4H21.3496Z" fill="#8A6038"/>
<path d="M13.1996 19.6004V33.2504H8.84961V19.6004H13.1996ZM50.8496 54.4504V46.7504H55.1996V54.4504H50.8496ZM55.1996 31.4004V39.1004H50.8496V31.4004H55.1996ZM27.6497 23.0504V9.40039H31.9996V23.0504H27.6497ZM43.1996 47.0004V54.7004H38.8496V47.0004H43.1996Z" fill="#9C7249"/>
</svg>

