
<svg viewBox="0 0 64 64" fill="none" xmlns="http://www.w3.org/2000/svg">
<path d="M64 20.3002L60.45 21.0502L63.45 11.7002L64 12.3002V20.3002ZM0 12.3502L6 19.0002L0 20.3002V12.3502ZM45.7 9.2502L52.7 2.3502L55.15 11.8502L45.7 9.2502ZM54.05 26.6502L50.9 35.9502L44.4 28.6002L54.05 26.6502ZM43.35 12.9002L38.45 21.4002L33.55 12.9002H43.35ZM4.34998 1.7002H14.15L9.25 10.2002L4.34998 1.7002ZM29.3 40.3502L32.6 35.2002L35.35 40.6502L29.3 40.3502ZM22.8 63.4502L16.25 56.1002L25.9 54.1502L22.8 63.4502Z" fill="#229A55"/>
<path d="M22.8 63.45L25.9 54.15L16.25 56.1L22.8 63.45ZM64 12.3L63.45 11.7L60.45 21.05L64 20.3V32.95L57.75 34.2L64 41.25V49.65L61.1 52.05L64 53.15V64H39.85L40.9 60.8L31.25 62.75L32.35 64H0V53.15L6.25 55.55L4.65002 45.8L0 49.65V41.2L0.299988 41.55L3.45001 32.25L0 32.95V20.3L6 19L0 12.35V0H32.35L37.75 6.1L39.85 0H64V12.3ZM45.7 9.25L55.15 11.85L52.7 2.35L45.7 9.25ZM33.1 20.65L30.35 15.2L27 20.3L33.1 20.65ZM23.65 32.95L33.5 32.6L28.25 24.25L23.65 32.95ZM19.9 8.5L24.45 4.45L18.65 2.5L19.9 8.5ZM57.75 3.1L59 9.1L63.55 5.05L57.75 3.1ZM54.05 26.65L44.4 28.6L50.9 35.95L54.05 26.65ZM40.7 32.6L41.1 26.5L35.6 29.25L40.7 32.6ZM47.1 17.05L52.15 20.35L52.55 14.25L47.1 17.05ZM43.35 12.9H33.55L38.45 21.4L43.35 12.9ZM21.5 21L24.65 11.7L15 13.65L21.5 21ZM4.34998 1.7L9.25 10.2L14.15 1.7H4.34998ZM7.75 15.2L11.3 20.15L13.9 14.6L7.75 15.2ZM8.40002 33.45L17.05 28.85L8.75 23.6L8.40002 33.45ZM9.90002 61.6L14.45 57.55L8.65002 55.6L9.90002 61.6ZM31.35 48.4L27.95 53.5L34.05 53.85L31.35 48.4ZM47.95 60L57.75 59.3L52.25 51.15L47.95 60ZM55.75 47.25L56.15 41.15L50.65 43.85L55.75 47.25ZM43.5 57.05L43.85 50.95L38.35 53.7L43.5 57.05ZM7.65002 39.95L11.7 44.5L13.65 38.7L7.65002 39.95ZM29.3 40.35L35.35 40.65L32.6 35.2L29.3 40.35ZM37.85 48.4L46.5 43.8L38.15 38.55L37.85 48.4ZM25 42.1L16.15 37.85L16.9 47.65L25 42.1Z" fill="#27AE60"/>
<path d="M25 42.1002L16.9 47.6502L16.15 37.8502L25 42.1002ZM0 49.6502L4.65002 45.8002L6.25 55.5502L0 53.1502V49.6502ZM64 53.1502L61.1 52.0502L64 49.6502V53.1502ZM47.1 17.0502L52.55 14.2502L52.15 20.3502L47.1 17.0502ZM40.7 32.6002L35.6 29.2502L41.1 26.5002L40.7 32.6002ZM21.5 21.0002L15 13.6502L24.65 11.7002L21.5 21.0002ZM9.90002 61.6002L8.65002 55.6002L14.45 57.5502L9.90002 61.6002Z" fill="#29BB67"/>
<path d="M39.85 0L37.75 6.1L32.35 0H39.85ZM0 32.95L3.45001 32.25L0.299988 41.55L0 41.2V32.95ZM32.35 64L31.25 62.75L40.9 60.8L39.85 64H32.35ZM64 41.25L57.75 34.2L64 32.95V41.25ZM57.75 3.1L63.55 5.05L59 9.1L57.75 3.1ZM19.9 8.5L18.65 2.5L24.45 4.45L19.9 8.5ZM23.65 32.95L28.25 24.25L33.5 32.6L23.65 32.95ZM33.1 20.65L27 20.3L30.35 15.2L33.1 20.65ZM8.40002 33.45L8.75 23.6L17.05 28.85L8.40002 33.45ZM7.75 15.2L13.9 14.6L11.3 20.15L7.75 15.2ZM7.65002 39.95L13.65 38.7L11.7 44.5L7.65002 39.95ZM43.5 57.05L38.35 53.7L43.85 50.95L43.5 57.05ZM55.75 47.25L50.65 43.85L56.15 41.15L55.75 47.25ZM47.95 60L52.25 51.15L57.75 59.3L47.95 60ZM31.35 48.4L34.05 53.85L27.95 53.5L31.35 48.4ZM37.85 48.4L38.15 38.55L46.5 43.8L37.85 48.4Z" fill="#24A159"/>
</svg>

