
<svg  viewBox="0 0 64 64" fill="none" xmlns="http://www.w3.org/2000/svg">
<path d="M54.3503 0.0996094L52.2004 4.29961C46.6671 13.9329 37.517 20.7163 24.7504 24.6496L24.8004 24.6996C14.3004 27.2996 6.08372 32.8496 0.150391 41.3496V23.2496L2.90039 19.0996C4.93372 15.5996 6.50034 11.6996 7.60034 7.39961C8.40034 4.83294 9.33372 2.39961 10.4004 0.0996094H54.3503ZM10.4004 64.0996C16.3671 50.9663 26.1504 42.7163 39.7504 39.3496L39.7004 39.2996C50.4338 35.9663 58.5837 30.6163 64.1504 23.2496V41.3496C61.1504 45.6829 58.7337 50.7663 56.9004 56.5996C56.2337 59.2663 55.3837 61.7663 54.3503 64.0996H10.4004ZM43.1504 11.0496L46.3004 6.64961L41.9004 3.44961L38.7004 7.89961L43.1504 11.0496ZM29.7504 8.79961L28.9004 3.44961L23.5504 4.29961L24.4004 9.64961L29.7504 8.79961ZM42.9004 31.0496L38.6504 34.4996L35.2004 30.2996L39.4004 26.8496L42.9004 31.0496ZM51.4004 17.2996L55.1504 13.3496L59.1003 17.0996L55.3503 21.0496L51.4004 17.2996ZM48.7004 55.0496L54.1003 55.5996L54.7004 50.1496L49.2504 49.5996L48.7004 55.0496ZM29.3004 61.5996L34.2504 59.3996L32.0004 54.3996L27.1003 56.6496L29.3004 61.5996ZM20.8503 13.4996L15.4504 12.9496L14.9004 18.3496L20.3004 18.8996L20.8503 13.4996ZM8.75037 47.0496L13.3503 45.4496L14.9004 50.0996L10.3004 51.6496L8.75037 47.0496Z" fill="#E86A17"/>
<path d="M8.75037 47.0496L10.3004 51.6496L14.9004 50.0996L13.3503 45.4496L8.75037 47.0496ZM0.150391 41.3496C6.08372 32.8496 14.3004 27.2996 24.8004 24.6996L24.7504 24.6496C37.517 20.7163 46.6671 13.9329 52.2004 4.29961L54.3503 0.0996094H64.1504V23.2496C58.5837 30.6163 50.4338 35.9663 39.7004 39.2996L39.7504 39.3496C26.1504 42.7163 16.3671 50.9663 10.4004 64.0996H0.150391V41.3496ZM10.4004 0.0996094C9.33372 2.39961 8.40034 4.83294 7.60034 7.39961C6.50034 11.6996 4.93372 15.5996 2.90039 19.0996L0.150391 23.2496V0.0996094H10.4004ZM43.1504 11.0496L38.7004 7.89961L41.9004 3.44961L46.3004 6.64961L43.1504 11.0496ZM42.9004 31.0496L39.4004 26.8496L35.2004 30.2996L38.6504 34.4996L42.9004 31.0496ZM47.3503 24.8996L45.4004 29.9996L50.5504 31.9996L52.4504 26.8496L47.3503 24.8996ZM51.4004 17.2996L55.3503 21.0496L59.1003 17.0996L55.1504 13.3496L51.4004 17.2996ZM64.1504 41.3496V64.0996H54.3503C55.3837 61.7663 56.2337 59.2663 56.9004 56.5996C58.7337 50.7663 61.1504 45.6829 64.1504 41.3496ZM48.7004 55.0496L49.2504 49.5996L54.7004 50.1496L54.1003 55.5996L48.7004 55.0496ZM20.8503 13.4996L20.3004 18.8996L14.9004 18.3496L15.4504 12.9496L20.8503 13.4996ZM13.5504 38.4496L9.20044 35.2996L6.00037 39.6496L10.4004 42.8496L13.5504 38.4496Z" fill="#D96315"/>
<path d="M13.55 38.4502L10.4 42.8502L6 39.6502L9.20007 35.3002L13.55 38.4502ZM29.75 8.8002L24.4 9.65019L23.55 4.30019L28.9 3.4502L29.75 8.8002ZM47.35 24.9002L52.4501 26.8502L50.55 32.0002L45.4 30.0002L47.35 24.9002ZM29.3 61.6002L27.1 56.6502L32 54.4002L34.25 59.4002L29.3 61.6002Z" fill="#FF9513"/>
</svg>

