<svg width="65" height="65" viewBox="0 0 64 64" fill="none" xmlns="http://www.w3.org/2000/svg">
<g clip-path="url(#clip0_2040_13)">
<path d="M39.9004 12.95L41.6504 14.15L41.5004 16.05L31.3503 9.05002L19.9004 14.45L19.8004 15.45L20.0504 12.4L31.3503 7.05002L39.7004 12.8V12.85L39.9004 12.95ZM64.1504 6V8H61.2004L55.2004 18.15L54.6003 17.1L61.2004 6H64.1504ZM64.1504 39.95V41.95L52.6003 42.1L46.7504 52.55L46.1504 51.55L52.6003 40.1L64.1504 39.95ZM8.90039 64.1H8.85034L8.90039 56.6L18.6504 51.15L28.3004 56.8V58.8L18.6504 53.15L8.90039 58.6V64.1ZM0.150391 41.95V39.95H1.75037L8.45044 51.2L7.90039 52.25L1.75037 41.95H0.150391ZM0.150391 8V6L10.0504 6.10001L16.4004 17.35L15.8503 18.35L10.0504 8.10001L0.150391 8ZM45.3004 48L38.5004 41.95L29.9004 44.75L28.0004 53.65V51.65L29.9004 42.75L38.5004 39.95L45.3004 46V48Z" fill="#5B6F70"/>
<path d="M45.3004 47.9996V45.9996L38.5004 39.9496L29.9004 42.7496L28.0004 51.6496V53.6496L34.7504 59.6996L43.4004 56.8996L45.3004 47.9996ZM0.150391 5.9996V0.0996094H8.85034L8.80042 3.79962L8.85034 3.84961L18.4004 9.4996L28.1504 3.9996L28.2004 0.0996094H41.1504L38.7504 1.79962L39.7004 10.8496L48.0004 14.5996L55.4004 9.2496L54.4504 0.199615L54.1504 0.0996094H64.1504V5.9996H61.2004L54.6003 17.0996L55.2004 18.1496L60.9504 28.3496H64.1504V39.9496L52.6003 40.0996L46.1504 51.5496L46.7504 52.5496L52.8503 62.8496L64.1504 62.7496V64.0996H54.2004L46.1504 60.4996L41.1504 64.0996H28.2504L28.3004 58.7996V56.7996L18.6504 51.1496L8.90039 56.5996L8.85034 64.0996H0.150391V62.7496L2.00037 62.6996L7.90039 52.2496L8.45044 51.1996L1.75037 39.9496H0.150391V28.3496L9.85034 28.4496L15.8503 18.3496L16.4004 17.3496L10.0504 6.09961L0.150391 5.9996ZM41.5004 16.0496L41.6504 14.1496L39.9004 12.9496L39.7004 12.7996L31.3503 7.04962L20.0504 12.3996L19.8004 15.4496L19.0004 24.8496L29.3004 31.9496L40.6003 26.6496L41.5004 16.0496ZM52.8004 37.8496L58.0004 31.6996L55.2504 24.1496L47.4004 22.7496L42.2004 28.8996L44.9504 36.3996L52.8004 37.8496ZM25.4504 32.0496L16.3004 28.4996L8.65039 34.5996L10.1003 44.3496L19.2504 47.9496L26.9504 41.7996L25.4504 32.0496Z" fill="#677C7E"/>
<path d="M8.85034 0.0996094H28.2004L28.1504 3.9996L18.4004 9.4996L8.85034 3.84961L8.80042 3.79962L8.85034 0.0996094ZM64.1504 7.9996V28.3496H60.9504L55.2004 18.1496L61.2004 7.9996H64.1504ZM64.1504 41.9496V62.7496L52.8503 62.8496L46.7504 52.5496L52.6003 42.0996L64.1504 41.9496ZM28.2504 64.0996H8.90039V58.5996L18.6504 53.1496L28.3004 58.7996L28.2504 64.0996ZM0.150391 62.7496V41.9496H1.75037L7.90039 52.2496L2.00037 62.6996L0.150391 62.7496ZM0.150391 28.3496V7.9996L10.0504 8.09961L15.8503 18.3496L9.85034 28.4496L0.150391 28.3496ZM19.8004 15.4496L19.9004 14.4496L31.3503 9.04962L41.5004 16.0496L40.6003 26.6496L29.3004 31.9496L19.0004 24.8496L19.8004 15.4496ZM28.0004 53.6496L29.9004 44.7496L38.5004 41.9496L45.3004 47.9996L43.4004 56.8996L34.7504 59.6996L28.0004 53.6496Z" fill="#5F7374"/>
<path d="M41.1504 0.0996094H54.1504L54.4504 0.199615L55.4004 9.2496L48.0004 14.5996L39.7004 10.8496L38.7504 1.79962L41.1504 0.0996094ZM54.2004 64.0996H41.1504L46.1504 60.4996L54.2004 64.0996ZM52.8004 37.8496L44.9504 36.3996L42.2004 28.8996L47.4004 22.7496L55.2504 24.1496L58.0004 31.6996L52.8004 37.8496ZM25.4504 32.0496L26.9504 41.7996L19.2504 47.9496L10.1003 44.3496L8.65039 34.5996L16.3004 28.4996L25.4504 32.0496Z" fill="#6C8385"/>
<path d="M39.8992 12.9488L39.6992 12.8488V12.7988L39.8992 12.9488Z" fill="#AD7E6E"/>
<path d="M1.55042 14.8996L0.150391 14.4496V9.29962H0.200439L1.55042 14.8996ZM64.1504 14.4496C61.7837 13.5496 59.3838 12.8663 56.9504 12.3996L56.6504 11.0996L64.1504 9.29962V14.4496ZM8.20044 1.84961L10.3503 6.6496L5.40039 8.8996L3.15039 3.94962L7.95044 1.84961H8.20044ZM38.6504 1.84961H48.3004L47.8503 5.79962L38.3004 4.69962L38.6504 1.84961Z" fill="#A1C2C4"/>
<path d="M38.6504 1.84961L38.3004 4.69962L47.8503 5.79962L48.3004 1.84961H64.1504V9.29962L56.6504 11.0996L56.9504 12.3996L46.7504 11.6496H46.5004L42.1504 8.4996L39.2504 12.5496C36.917 13.0163 34.5504 13.6496 32.1504 14.4496C29.6837 15.4163 27.167 16.1496 24.6003 16.6496L24.0004 16.7496L20.5004 17.1996L15.0004 17.3496C11.6004 17.2163 8.13368 16.6996 4.60034 15.7996L1.55042 14.8996L0.200439 9.29962H0.150391V1.84961H7.95044L3.15039 3.94962L5.40039 8.8996L10.3503 6.6496L8.20044 1.84961H38.6504ZM26.3503 9.29962L19.4504 2.94962L13.1003 9.84961L20.0004 16.1996L26.3503 9.29962Z" fill="#9BBBBD"/>
<path d="M1.55042 14.9004L4.60034 15.8004C8.13368 16.7004 11.6004 17.2171 15.0004 17.3504L20.5004 17.2004L24.0004 16.7504L24.6003 16.6504C27.167 16.1504 29.6837 15.4171 32.1504 14.4504C34.5504 13.6504 36.917 13.0171 39.2504 12.5504L46.5004 11.6504H46.7504L56.9504 12.4004C59.3838 12.8671 61.7837 13.5504 64.1504 14.4504V17.4004H64.0504L62.4004 16.6504C60.8004 15.9837 59.1837 15.4337 57.5504 15.0004L56.7004 14.8004L54.2504 14.3004L44.9004 14.0504L44.2004 14.1004L41.3004 14.6004H41.2504C38.917 15.0671 36.5504 15.7504 34.1504 16.6504L32.1504 17.4004C29.4837 18.7004 26.767 19.6337 24.0004 20.2004L17.4004 20.9504H17.3503L10.7004 20.4504C8.23377 20.0504 5.73377 19.4171 3.20044 18.5504L0.150391 17.4004V14.4504L1.55042 14.9004Z" fill="#809B9C"/>
<path d="M46.4996 11.6512L39.2496 12.5512L42.1497 8.50115L46.4996 11.6512ZM26.3496 9.30117L19.9996 16.2012L13.0996 9.85116L19.4497 2.95117L26.3496 9.30117Z" fill="#95B4B6"/>
</g>
<defs>
<clipPath id="clip0_2040_13">
<rect width="64" height="64.0004" fill="white" transform="translate(0.150391 0.0996094)"/>
</clipPath>
</defs>
</svg>
