<svg xmlns="http://www.w3.org/2000/svg" viewBox="0 0 64 64" fill="none" style="transform:rotate(90deg)">
<path d="M64.15 64.05H60.4L64.15 57.7L60.4 51.25L64.15 44.9L60.4 38.45L64.15 32.1L60.4 25.65L64.15 19.3L60.4 12.85L64.15 6.50001L60.4 0.100006H64.15V6.50001V19.3V32.1V44.9V57.7V64.05ZM3.90002 0.100006L0.150024 6.50001L3.90002 12.85L0.150024 19.3L3.90002 25.65L0.150024 32.1L3.90002 38.45L0.150024 44.9L3.90002 51.25L0.150024 57.7L3.90002 64.05H0.150024V57.7V44.9V32.1V19.3V6.50001V0.100006H3.90002Z" fill="#7B5632"/>
<path d="M60.4 0.100006L64.15 6.50001L60.4 12.85L64.15 19.3L60.4 25.65L64.15 32.1L60.4 38.45L64.15 44.9L60.4 51.25L64.15 57.7L60.4 64.05H64.15V64.1H55.35V54.55V46.85H51V54.55V64.1H21.5V54.55H17.15V64.1H0.150024V64.05H3.90002L0.150024 57.7L3.90002 51.25L0.150024 44.9L3.90002 38.45L0.150024 32.1L3.90002 25.65L0.150024 19.3L3.90002 12.85L0.150024 6.50001L3.90002 0.100006H9V19.7V33.35V42.9H13.35V33.35V19.7V0.100006H39V19.7H43.35V0.100006H60.4ZM55.35 31.5V6.90001H51V31.5V39.2H55.35V31.5ZM32.15 23.15V9.50001H27.8V23.15V60.1H32.15V23.15ZM21.5 4.10001H17.15V46.2H21.5V4.10001ZM39 47.1V54.8H43.35V47.1V32.4H39V47.1Z" fill="#91673F"/>
<path d="M39 47.1V32.4H43.35V47.1H39ZM43.35 0.100006V19.7H39V0.100006H43.35ZM13.35 0.100006V19.7H9V0.100006H13.35ZM13.35 33.35V42.9H9V33.35H13.35ZM17.15 64.1V54.55H21.5V64.1H17.15ZM51 64.1V54.55H55.35V64.1H51ZM51 31.5V6.90001H55.35V31.5H51ZM32.15 23.15V60.1H27.8V23.15H32.15ZM21.5 4.10001V46.2H17.15V4.10001H21.5Z" fill="#8A6038"/>
<path d="M13.35 19.7V33.35H9V19.7H13.35ZM51 54.55V46.85H55.35V54.55H51ZM55.35 31.5V39.2H51V31.5H55.35ZM27.8 23.15V9.5H32.15V23.15H27.8ZM43.35 47.1V54.8H39V47.1H43.35Z" fill="#9C7249"/>
</svg>