
<svg viewBox="0 0 64 64" fill="none" xmlns="http://www.w3.org/2000/svg">
<path d="M55.2 20.95L58.95 17L55 13.25L51.25 17.2L55.2 20.95ZM54.2 0H64V23.15C58.4333 30.5167 50.2833 35.8667 39.55 39.2L39.6 39.25C35.2666 40.3167 31.3333 41.8833 27.8 43.95C20.1667 48.35 14.3167 55.0333 10.25 64H0V41.25L1.95001 38.7C7.68335 31.6333 15.25 26.9333 24.65 24.6L24.6 24.55C37.3666 20.6167 46.5167 13.8333 52.05 4.2L54.2 0ZM64 41.25V64H54.2C55.2333 61.6667 56.0833 59.1667 56.75 56.5C58.2167 51.8333 60.0667 47.65 62.3 43.95L64 41.25ZM0 23.15V0H10.25C9.18333 2.3 8.25001 4.73333 7.45001 7.3C6.35001 11.6 4.78333 15.5 2.75 19L1.95001 20.35L0 23.15ZM52.3 26.75L47.2 24.8L45.25 29.9L50.4 31.9L52.3 26.75ZM35.05 30.2L38.5 34.4L42.75 30.95L39.25 26.75L35.05 30.2ZM5.84998 39.55L10.25 42.75L13.4 38.35L9.04999 35.2L5.84998 39.55ZM8.59998 46.95L10.15 51.55L14.75 50L13.2 45.35L8.59998 46.95Z" fill="white"/>
<path d="M8.59961 46.9506L13.1996 45.3506L14.7496 50.0006L10.1497 51.5506L8.59961 46.9506ZM55.1996 20.9506L51.2496 17.2006L54.9996 13.2506L58.9496 17.0006L55.1996 20.9506ZM53.9496 55.5006L48.5496 54.9506L49.0996 49.5006L54.5496 50.0506L53.9496 55.5006ZM20.6996 13.4006L20.1497 18.8006L14.7496 18.2506L15.2996 12.8506L20.6996 13.4006ZM24.2496 9.55058L23.3997 4.20059L28.7496 3.35059L29.5996 8.70059L24.2496 9.55058ZM35.0496 30.2006L39.2496 26.7506L42.7496 30.9506L38.4996 34.4006L35.0496 30.2006Z" fill="#F5FCFF"/>
<path d="M64 23.15V41.25L62.3 43.95C60.0667 47.65 58.2167 51.8333 56.75 56.5C56.0833 59.1667 55.2333 61.6667 54.2 64H10.25C14.3167 55.0333 20.1667 48.35 27.8 43.95C31.3333 41.8833 35.2666 40.3167 39.6 39.25L39.55 39.2C50.2833 35.8667 58.4333 30.5167 64 23.15ZM0 41.25V23.15L1.95001 20.35L2.75 19C4.78333 15.5 6.35001 11.6 7.45001 7.3C8.25001 4.73333 9.18333 2.3 10.25 0H54.2L52.05 4.2C46.5167 13.8333 37.3666 20.6167 24.6 24.55L24.65 24.6C15.25 26.9333 7.68335 31.6333 1.95001 38.7L0 41.25ZM53.95 55.5L54.55 50.05L49.1 49.5L48.55 54.95L53.95 55.5ZM43 10.95L46.15 6.55L41.75 3.35L38.55 7.8L43 10.95ZM24.25 9.55L29.6 8.7L28.75 3.35L23.4 4.2L24.25 9.55ZM20.7 13.4L15.3 12.85L14.75 18.25L20.15 18.8L20.7 13.4ZM26.95 56.55L29.15 61.5L34.1 59.3L31.85 54.3L26.95 56.55Z" fill="#E7F9FF"/>
<path d="M26.9492 56.5506L31.8492 54.3006L34.0992 59.3006L29.1492 61.5006L26.9492 56.5506ZM42.9992 10.9506L38.5492 7.80058L41.7492 3.35059L46.1492 6.55058L42.9992 10.9506Z" fill="#D9F5FF"/>
<path d="M52.2996 26.7508L50.3997 31.9008L45.2496 29.9008L47.1996 24.8008L52.2996 26.7508ZM5.84961 39.5508L9.04962 35.2008L13.3997 38.3508L10.2496 42.7508L5.84961 39.5508Z" fill="#EEFAFF"/>
</svg>

