<svg xmlns="http://www.w3.org/2000/svg" viewBox="0 0 64 64" fill="none">
<path d="M64.15 12.4L63.6 11.8L60.6 21.15L64.15 20.4V33.05L57.9 34.3L64.15 41.35V49.75L61.25 52.15L64.15 53.25V64.1H40L41.05 60.9L31.4 62.85L32.5 64.1H0.150024V53.25L6.40002 55.65L4.80005 45.9L0.150024 49.75V41.3L0.450012 41.65L3.60004 32.35L0.150024 33.05V20.4L6.15002 19.1L0.150024 12.45V0.100006H32.5L37.9 6.20001L40 0.100006H64.15V12.4ZM55.3 11.95L52.85 2.45001L45.85 9.35001L55.3 11.95ZM57.9 3.20001L59.15 9.20001L63.7 5.15001L57.9 3.20001ZM40.85 32.7L41.25 26.6L35.75 29.35L40.85 32.7ZM47.25 17.15L52.3 20.45L52.7 14.35L47.25 17.15ZM51.05 36.05L54.2 26.75L44.55 28.7L51.05 36.05ZM43.65 57.15L44 51.05L38.5 53.8L43.65 57.15ZM52.4 51.25L48.1 60.1L57.9 59.4L52.4 51.25ZM55.9 47.35L56.3 41.25L50.8 43.95L55.9 47.35ZM20.05 8.60001L24.6 4.55001L18.8 2.60001L20.05 8.60001ZM9.40002 10.3L14.3 1.80001H4.5L9.40002 10.3ZM28.4 24.35L23.8 33.05L33.65 32.7L28.4 24.35ZM17.2 28.95L8.90002 23.7L8.55005 33.55L17.2 28.95ZM7.90002 15.3L11.45 20.25L14.05 14.7L7.90002 15.3ZM27.15 20.4L33.25 20.75L30.5 15.3L27.15 20.4ZM24.8 11.8L15.15 13.75L21.65 21.1L24.8 11.8ZM22.95 63.55L26.05 54.25L16.4 56.2L22.95 63.55ZM33.7 13L38.6 21.5L43.5 13H33.7ZM28.1 53.6L34.2 53.95L31.5 48.5L28.1 53.6ZM29.45 40.45L35.5 40.75L32.75 35.3L29.45 40.45ZM14.6 57.65L8.80005 55.7L10.05 61.7L14.6 57.65ZM7.80005 40.05L11.85 44.6L13.8 38.8L7.80005 40.05ZM38.3 38.65L38 48.5L46.65 43.9L38.3 38.65ZM17.05 47.75L25.15 42.2L16.3 37.95L17.05 47.75Z" fill="#2ECC71"/>
<path d="M64.15 20.4L60.6 21.15L63.6 11.8L64.15 12.4V20.4ZM0.150024 12.45L6.15002 19.1L0.150024 20.4V12.45ZM40.85 32.7L35.75 29.35L41.25 26.6L40.85 32.7ZM33.7 13H43.5L38.6 21.5L33.7 13ZM22.95 63.55L16.4 56.2L26.05 54.25L22.95 63.55ZM14.6 57.65L10.05 61.7L8.80005 55.7L14.6 57.65Z" fill="#2ABB67"/>
<path d="M40 0.100006L37.9 6.20001L32.5 0.100006H40ZM0.150024 33.05L3.60004 32.35L0.450012 41.65L0.150024 41.3V33.05ZM32.5 64.1L31.4 62.85L41.05 60.9L40 64.1H32.5ZM64.15 41.35L57.9 34.3L64.15 33.05V41.35ZM57.9 3.20001L63.7 5.15001L59.15 9.20001L57.9 3.20001ZM55.3 11.95L45.85 9.35001L52.85 2.45001L55.3 11.95ZM51.05 36.05L44.55 28.7L54.2 26.75L51.05 36.05ZM47.25 17.15L52.7 14.35L52.3 20.45L47.25 17.15ZM52.4 51.25L57.9 59.4L48.1 60.1L52.4 51.25ZM43.65 57.15L38.5 53.8L44 51.05L43.65 57.15ZM20.05 8.60001L18.8 2.60001L24.6 4.55001L20.05 8.60001ZM7.90002 15.3L14.05 14.7L11.45 20.25L7.90002 15.3ZM17.2 28.95L8.55005 33.55L8.90002 23.7L17.2 28.95ZM28.4 24.35L33.65 32.7L23.8 33.05L28.4 24.35ZM24.8 11.8L21.65 21.1L15.15 13.75L24.8 11.8ZM28.1 53.6L31.5 48.5L34.2 53.95L28.1 53.6ZM7.80005 40.05L13.8 38.8L11.85 44.6L7.80005 40.05ZM17.05 47.75L16.3 37.95L25.15 42.2L17.05 47.75ZM38.3 38.65L46.65 43.9L38 48.5L38.3 38.65Z" fill="#2CC46C"/>
<path d="M0.150024 49.75L4.80005 45.9L6.40002 55.65L0.150024 53.25V49.75ZM64.15 53.25L61.25 52.15L64.15 49.75V53.25ZM55.9 47.35L50.8 43.95L56.3 41.25L55.9 47.35ZM9.40002 10.3L4.5 1.79999H14.3L9.40002 10.3ZM27.15 20.4L30.5 15.3L33.25 20.75L27.15 20.4ZM29.45 40.45L32.75 35.3L35.5 40.75L29.45 40.45Z" fill="#30D475"/>
</svg>