
<svg  viewBox="0 0 64 64" fill="none" xmlns="http://www.w3.org/2000/svg">
<path d="M8.75037 47.0496L10.3004 51.6496L14.9004 50.0996L13.3504 45.4496L8.75037 47.0496ZM38.8504 0.0996094L38.3004 4.7496L47.8504 5.84961L48.5004 0.0996094H64.1504V9.34961L56.6504 11.1496L58.4004 18.6996L64.1504 17.3996V34.4996L60.8004 34.8996L61.4504 40.2996L64.1504 39.9996V64.0996H48.5504L48.9504 60.2996L39.4004 59.1996L38.8504 64.0996H0.150391V39.9996L2.8504 39.6496L2.20038 34.2496L0.150391 34.4996V17.3996L2.00037 16.9496L0.200378 9.34961H0.150391V0.0996094H38.8504ZM26.3504 9.34961L19.4504 2.9996L13.1004 9.89961L20.0004 16.2496L26.3504 9.34961ZM3.15039 3.9996L5.40039 8.94962L10.3504 6.69962L8.15039 1.79961L3.15039 3.9996ZM15.4504 38.4496L11.1004 35.2996L7.90039 39.6496L12.3004 42.8496L15.4504 38.4496ZM31.3504 18.7496L30.8004 24.1496L36.2004 24.6996L36.7504 19.2996L31.3504 18.7496ZM28.0504 38.5496L35.4504 36.1996L33.1004 28.7496L25.6504 31.0996L28.0504 38.5496ZM8.45038 29.1996L18.3004 31.7996L20.8504 21.8996L11.0004 19.3496L8.45038 29.1996ZM54.3004 23.8996L50.3504 20.1496L46.6004 24.0996L50.5504 27.8496L54.3004 23.8996ZM46.5504 11.7496L42.1504 8.54961L38.9504 12.9996L43.4004 16.1496L46.5504 11.7496ZM53.3504 30.2996L51.4004 35.3996L56.5504 37.3996L58.4504 32.2496L53.3504 30.2996ZM40.6004 33.1996L44.0504 37.3996L48.3004 33.9496L44.8004 29.7496L40.6004 33.1996ZM60.2504 55.5996L60.8504 50.1496L55.4004 49.5996L54.8504 55.0496L60.2504 55.5996ZM52.6504 49.3996L50.3004 41.9996L42.9004 44.3496L45.2504 51.7496L52.6504 49.3996ZM32.3004 48.4496L34.5004 53.3996L39.4504 51.1996L37.2004 46.1996L32.3004 48.4496ZM29.5504 48.0996L19.8004 45.8996L17.6504 55.6996L27.3504 57.8496L29.5504 48.0996ZM1.95038 57.0496L2.80042 62.3996L8.15039 61.5496L7.30042 56.1996L1.95038 57.0496Z" fill="#89A4A6"/>
<path d="M26.3504 9.34961L20.0004 16.2496L13.1004 9.89961L19.4504 2.9996L26.3504 9.34961ZM48.5004 0.0996094L47.8504 5.84961L38.3004 4.7496L38.8504 0.0996094H48.5004ZM0.150391 9.34961H0.200378L2.00037 16.9496L0.150391 17.3996V9.34961ZM0.150391 34.4996L2.20038 34.2496L2.8504 39.6496L0.150391 39.9996V34.4996ZM38.8504 64.0996L39.4004 59.1996L48.9504 60.2996L48.5504 64.0996H38.8504ZM64.1504 39.9996L61.4504 40.2996L60.8004 34.8996L64.1504 34.4996V39.9996ZM64.1504 17.3996L58.4004 18.6996L56.6504 11.1496L64.1504 9.34961V17.3996ZM8.45038 29.1996L11.0004 19.3496L20.8504 21.8996L18.3004 31.7996L8.45038 29.1996ZM28.0504 38.5496L25.6504 31.0996L33.1004 28.7496L35.4504 36.1996L28.0504 38.5496ZM31.3504 18.7496L36.7504 19.2996L36.2004 24.6996L30.8004 24.1496L31.3504 18.7496ZM40.6004 33.1996L44.8004 29.7496L48.3004 33.9496L44.0504 37.3996L40.6004 33.1996ZM53.3504 30.2996L58.4504 32.2496L56.5504 37.3996L51.4004 35.3996L53.3504 30.2996ZM60.2504 55.5996L54.8504 55.0496L55.4004 49.5996L60.8504 50.1496L60.2504 55.5996ZM29.5504 48.0996L27.3504 57.8496L17.6504 55.6996L19.8004 45.8996L29.5504 48.0996ZM32.3004 48.4496L37.2004 46.1996L39.4504 51.1996L34.5004 53.3996L32.3004 48.4496ZM1.95038 57.0496L7.30042 56.1996L8.15039 61.5496L2.80042 62.3996L1.95038 57.0496Z" fill="#819A9C"/>
<path d="M3.15039 3.9998L8.15039 1.7998L10.3504 6.69981L5.40039 8.94981L3.15039 3.9998ZM15.4504 38.4498L12.3004 42.8498L7.90039 39.6498L11.1004 35.2998L15.4504 38.4498ZM46.5504 11.7498L43.4004 16.1498L38.9504 12.9998L42.1504 8.5498L46.5504 11.7498ZM54.3004 23.8998L50.5504 27.8498L46.6004 24.0998L50.3504 20.1498L54.3004 23.8998ZM52.6504 49.3998L45.2504 51.7498L42.9004 44.3498L50.3004 41.9998L52.6504 49.3998ZM8.75037 47.0498L13.3504 45.4498L14.9004 50.0998L10.3004 51.6498L8.75037 47.0498Z" fill="#8EABAD"/>
<path d="M20.0504 8.59961L24.6004 4.54961L18.8004 2.59961L20.0504 8.59961ZM37.6504 12.9996L32.2004 9.7496L23.8004 14.7496L24.8004 11.7996L16.9504 13.3996L10.8004 9.7496L2.30042 14.8496L0.150391 12.4496V2.09961H4.70038L9.40039 10.2996L14.1504 2.09961H34.3004L37.9004 6.19962L39.3004 2.09961H64.1504V12.3996L63.6004 11.7996L62.5504 15.1496L54.9504 10.6496L52.8504 2.44962L45.8504 9.34961L51.5504 10.9496L42.8004 16.0996L42.0004 15.6496L43.5004 12.9996H37.6504ZM57.9004 3.19962L59.1504 9.19962L63.7004 5.14961L57.9004 3.19962Z" fill="#2ECC71"/>
<path d="M57.8992 3.19962L63.6992 5.14961L59.1492 9.19962L57.8992 3.19962ZM20.0493 8.59961L18.7993 2.59961L24.5992 4.54961L20.0493 8.59961ZM51.5493 10.9496L45.8492 9.34961L52.8492 2.44962L54.9492 10.6496L53.4992 9.7496L51.5493 10.9496ZM39.2993 2.09961L37.8992 6.19962L34.2993 2.09961H39.2993ZM16.9492 13.3996L24.7993 11.7996L23.7993 14.7496L21.4992 16.0996L16.9492 13.3996Z" fill="#2CC46C"/>
<path d="M16.9504 13.4L21.5004 16.1L23.8004 14.75L32.2004 9.75L37.6504 13L42.0004 15.65L42.8004 16.1L51.5504 10.95L53.5004 9.75L54.9504 10.65L62.5504 15.15L64.1504 16.1V20.2L53.5004 12.2L42.8004 20.2L32.2004 12.2L21.5004 20.2L10.8004 12.2L0.150391 20.2V16.1L2.30042 14.85L10.8004 9.75L16.9504 13.4Z" fill="#28B162"/>
<path d="M37.6504 12.9998H43.5004L42.0004 15.6498L37.6504 12.9998ZM62.5504 15.1498L63.6004 11.7998L64.1504 12.3998V16.0998L62.5504 15.1498ZM0.150391 12.4498L2.30042 14.8498L0.150391 16.0998V12.4498Z" fill="#2ABB67"/>
<path d="M14.1492 2.09961L9.39923 10.2996L4.69922 2.09961H14.1492Z" fill="#30D475"/>
<path d="M64.1504 20.2002V26.1502L53.5004 15.6502L42.8004 26.1502L32.2004 15.6502L21.5004 26.1502L10.8004 15.6502L0.150391 26.1502V20.2002L10.8004 12.2002L21.5004 20.2002L32.2004 12.2002L42.8004 20.2002L53.5004 12.2002L64.1504 20.2002Z" fill="black" fill-opacity="0.101961"/>
</svg>

