<svg xmlns="http://www.w3.org/2000/svg" viewBox="0 0 64 64" fill="none">
<path d="M6.60004 0.0499878L12.95 3.74999L19.25 0.0499878H19.4V0.0999908L25.75 3.74999L32.05 0.0499878H32.2L38.55 3.74999L44.85 0.0499878H45V0.0999908L51.35 3.74999L57.65 0.0499878H57.8L64.15 6.44999L60.4 12.8L64.15 19.25L60.4 25.6L64.15 32.05L60.4 38.4L64.15 44.85L60.4 51.2L64.15 57.65L57.7 64L51.35 60.25L44.9 64L38.55 60.25L32.1 64L25.75 60.25L19.3 64L12.95 60.25L6.5 64L0.150024 57.65L3.90002 51.2L0.150024 44.85L3.90002 38.4L0.150024 32.05L3.90002 25.6L0.150024 19.25L3.90002 12.8L0.150024 6.44999L6.45001 0.0499878H6.60004ZM45.5 10.05H18.85L10.1 18.75V45.3L18.8 54.05H45.4L54.1 45.3H54.15V18.7L45.5 10.05Z" fill="#27AE60"/>
<path d="M19.25 0.0499954L12.95 3.75L6.60004 0.0499954L6.5 0H19.3L19.25 0.0499954ZM6.45001 0.0499954L0.150024 6.45L3.90002 12.8L0.150024 19.25L3.90002 25.6L0.150024 32.05L3.90002 38.4L0.150024 44.85L3.90002 51.2L0.150024 57.65L6.5 64L12.95 60.25L19.3 64L25.75 60.25L32.1 64L38.55 60.25L44.9 64L51.35 60.25L57.7 64L64.15 57.65L60.4 51.2L64.15 44.85L60.4 38.4L64.15 32.05L60.4 25.6L64.15 19.25L60.4 12.8L64.15 6.45L57.8 0.0499954L57.7 0L57.65 0.0499954L51.35 3.75L45 0.0999985V0.0499954L44.9 0L44.85 0.0499954L38.55 3.75L32.2 0.0499954L32.1 0L32.05 0.0499954L25.75 3.75L19.4 0.0999985V0.0499954L19.3 0H32.1H44.9H57.7H64.1V0.0499954H64.15V6.45V19.25V32.05V44.85V57.65V64H57.7H44.9H32.1H19.3H6.5H0.150024V57.65V44.85V32.05V19.25V6.45V0H6.5L6.45001 0.0499954Z" fill="#29BB67"/>
<path d="M45.5 10.05L54.15 18.7V45.3H54.1L45.4 54.05H18.8L10.1 45.3V18.75L18.85 10.05H45.5ZM44.15 22.8L41.4 20.05H23L20.1 22.95V41.2L22.95 44.05H41.25L44.15 41.15V22.8Z" fill="#B1DEB2"/>
<path d="M44.15 22.8V41.15L41.25 44.05H22.95L20.1 41.2V22.95L23 20.05H41.4L44.15 22.8Z" fill="#B8E7B9"/>
<path d="M64.15 64V64.05H0.150024V64H6.5H19.3H32.1H44.9H57.7H64.15Z" fill="#91673F"/>
</svg>