<svg viewBox="0 0 64 64" fill="none" xmlns="http://www.w3.org/2000/svg">
<path d="M32 23.05V9.39999H27.65V23.05V60H32V23.05ZM21.35 4H17V46.1H21.35V4ZM13.2 0H38.85V19.6H43.2V0H60.25L64 6.39999L60.25 12.75L64 19.2L60.25 25.55L64 32L60.25 38.35L64 44.8L60.25 51.15L64 57.6L60.25 63.95H64V64H55.2V54.45V46.75H50.85V54.45V64H21.35V54.45H17V64H0V63.95H3.75L0 57.6L3.75 51.15L0 44.8L3.75 38.35L0 32L3.75 25.55L0 19.2L3.75 12.75L0 6.39999L3.75 0H8.84998V19.6V33.25V42.8H13.2V33.25V19.6V0ZM43.2 47V32.3H38.85V47V54.7H43.2V47ZM50.85 31.4V39.1H55.2V31.4V6.8H50.85V31.4Z" fill="#27AE60"/>
<path d="M50.85 31.4H55.2V39.1H50.85V31.4ZM27.65 23.05V9.39999H32V23.05H27.65ZM60.25 0H64V6.39999V19.2V32V44.8V57.6V63.95H60.25L64 57.6L60.25 51.15L64 44.8L60.25 38.35L64 32L60.25 25.55L64 19.2L60.25 12.75L64 6.39999L60.25 0ZM0 63.95V57.6V44.8V32V19.2V6.39999V0H3.75L0 6.39999L3.75 12.75L0 19.2L3.75 25.55L0 32L3.75 38.35L0 44.8L3.75 51.15L0 57.6L3.75 63.95H0ZM8.84998 19.6H13.2V33.25H8.84998V19.6ZM43.2 47V54.7H38.85V47H43.2ZM50.85 54.45V46.75H55.2V54.45H50.85Z" fill="#29BB67"/>
<path d="M50.8496 54.45H55.1996V64H50.8496V54.45ZM31.9996 23.05V60H27.6497V23.05H31.9996ZM21.3496 4V46.1H16.9996V4H21.3496ZM8.84961 0H13.1996V19.6H8.84961V0ZM38.8496 0H43.1996V19.6H38.8496V0ZM21.3496 64H16.9996V54.45H21.3496V64ZM13.1996 33.25V42.8H8.84961V33.25H13.1996ZM38.8496 47V32.3H43.1996V47H38.8496ZM50.8496 31.4V6.8H55.1996V31.4H50.8496Z" fill="#24A159"/>
</svg>
