
<svg width="64" height="65" viewBox="0 0 64 65" fill="none" xmlns="http://www.w3.org/2000/svg">
<path d="M19.1 0.0498047H19.25V0.0998077L25.6 3.7498L31.9 0.0498047H32.05L38.4 3.7498L44.7 0.0498047H44.85V0.0998077L51.2 3.7498L57.5 0.0498047H57.65L64 6.4498L60.25 12.7998L64 19.2498L60.25 25.5998L64 32.0498L60.25 38.3998L64 44.8498L60.25 51.1998L64 57.6498L57.55 63.9998L51.2 60.2498L44.75 63.9998L38.4 60.2498C36.2667 61.5165 34.1167 62.7665 31.95 63.9998L25.6 60.2498L19.15 63.9998L12.8 60.2498L6.34998 63.9998L0 57.6498L3.75 51.1998L0 44.8498L3.75 38.3998L0 32.0498L3.75 25.5998L0 19.2498L3.75 12.7998L0 6.4498L6.29999 0.0498047H6.45001L12.8 3.7498L19.1 0.0498047ZM18.7 10.0498L9.95001 18.7498V45.2998L18.65 54.0498H45.25L53.95 45.2998H54V18.6998L45.35 10.0498H18.7Z" fill="#F0EADA"/>
<path d="M19.25 0.0500031L19.15 0L19.1 0.0500031L12.8 3.75L6.45001 0.0500031L6.34998 0H19.15H31.95L31.9 0.0500031L25.6 3.75L19.25 0.100006V0.0500031ZM6.34998 0L6.29999 0.0500031L0 6.45L3.75 12.8L0 19.25L3.75 25.6L0 32.05L3.75 38.4L0 44.85L3.75 51.2L0 57.65L6.34998 64L12.8 60.25L19.15 64L25.6 60.25L31.95 64C34.1167 62.7667 36.2667 61.5167 38.4 60.25L44.75 64L51.2 60.25L57.55 64L64 57.65L60.25 51.2L64 44.85L60.25 38.4L64 32.05L60.25 25.6L64 19.25L60.25 12.8L64 6.45L57.65 0.0500031L57.55 0L57.5 0.0500031L51.2 3.75L44.85 0.100006V0.0500031L44.75 0L44.7 0.0500031L38.4 3.75L32.05 0.0500031L31.95 0H44.75H57.55H63.95V0.0500031H64V6.45V19.25V32.05V44.85V57.65V64H57.55H44.75H31.95H19.15H6.34998H0V57.65V44.85V32.05V19.25V6.45V0H6.34998ZM22.85 20.05L19.95 22.95V41.2L22.8 44.05H41.1L44 41.15V22.8L41.25 20.05H22.85ZM24.95 25.05H39V39.05H24.95V25.05ZM20.8 15.05H43.3L49 20.75V43.2L43.2 49.05H20.75L14.95 43.25V20.85L20.8 15.05ZM29.95 30.05V34.05H34V30.05H29.95Z" fill="#DBD2C7"/>
<path d="M29.9492 30.0498H33.9992V34.0498H29.9492V30.0498ZM22.8492 20.0498H41.2492L43.9992 22.7998V41.1498L41.0992 44.0498H22.7992L19.9492 41.1998V22.9498L22.8492 20.0498ZM24.9492 25.0498V39.0498H38.9992V25.0498H24.9492ZM18.6992 10.0498H45.3492L53.9992 18.6998V45.2998H53.9492L45.2492 54.0498H18.6492L9.94922 45.2998V18.7498L18.6992 10.0498ZM20.7992 15.0498L14.9492 20.8498V43.2498L20.7492 49.0498H43.1992L48.9992 43.1998V20.7498L43.2992 15.0498H20.7992Z" fill="#FFF8E7"/>
<path d="M64 64V64.05H0V64H6.34998H19.15H31.95H44.75H57.55H64Z" fill="#91673F"/>
</svg>

