<svg xmlns="http://www.w3.org/2000/svg" viewBox="0 0 64 64" fill="none">
<path d="M55.35 21.05L59.1 17.1L55.15 13.35L51.4 17.3L55.35 21.05ZM54.35 0.100006H64.15V23.25C58.5834 30.6167 50.4333 35.9667 39.7 39.3L39.75 39.35C35.4167 40.4167 31.4833 41.9833 27.95 44.05C20.3167 48.45 14.4667 55.1333 10.4 64.1H0.150024V41.35L2.10004 38.8C7.83337 31.7333 15.4 27.0333 24.8 24.7L24.75 24.65C37.5167 20.7167 46.6667 13.9333 52.2 4.30001L54.35 0.100006ZM64.15 41.35V64.1H54.35C55.3834 61.7667 56.2334 59.2667 56.9 56.6C58.3667 51.9333 60.2167 47.75 62.45 44.05L64.15 41.35ZM0.150024 23.25V0.100006H10.4C9.33336 2.40001 8.40004 4.83334 7.60004 7.40001C6.50004 11.7 4.93336 15.6 2.90002 19.1L2.10004 20.45L0.150024 23.25ZM52.45 26.85L47.35 24.9L45.4 30L50.55 32L52.45 26.85ZM35.2 30.3L38.65 34.5L42.9 31.05L39.4 26.85L35.2 30.3ZM6 39.65L10.4 42.85L13.55 38.45L9.20001 35.3L6 39.65ZM8.75 47.05L10.3 51.65L14.9 50.1L13.35 45.45L8.75 47.05Z" fill="white"/>
<path d="M8.75 47.05L13.35 45.45L14.9 50.1L10.3 51.65L8.75 47.05ZM55.35 21.05L51.4 17.3L55.15 13.35L59.1 17.1L55.35 21.05ZM54.1 55.6L48.7 55.05L49.25 49.6L54.7 50.15L54.1 55.6ZM20.85 13.5L20.3 18.9L14.9 18.35L15.45 12.95L20.85 13.5ZM24.4 9.65001L23.55 4.30001L28.9 3.45001L29.75 8.80001L24.4 9.65001ZM35.2 30.3L39.4 26.85L42.9 31.05L38.65 34.5L35.2 30.3Z" fill="#F5FCFF"/>
<path d="M64.15 23.25V41.35L62.45 44.05C60.2167 47.75 58.3667 51.9333 56.9 56.6C56.2334 59.2667 55.3834 61.7667 54.35 64.1H10.4C14.4667 55.1333 20.3167 48.45 27.95 44.05C31.4833 41.9833 35.4167 40.4167 39.75 39.35L39.7 39.3C50.4333 35.9667 58.5834 30.6167 64.15 23.25ZM0.150024 41.35V23.25L2.10004 20.45L2.90002 19.1C4.93336 15.6 6.50004 11.7 7.60004 7.40001C8.40004 4.83334 9.33336 2.40001 10.4 0.100006H54.35L52.2 4.30001C46.6667 13.9333 37.5167 20.7167 24.75 24.65L24.8 24.7C15.4 27.0333 7.83337 31.7333 2.10004 38.8L0.150024 41.35ZM54.1 55.6L54.7 50.15L49.25 49.6L48.7 55.05L54.1 55.6ZM43.15 11.05L46.3 6.65001L41.9 3.45001L38.7 7.90001L43.15 11.05ZM24.4 9.65001L29.75 8.80001L28.9 3.45001L23.55 4.30001L24.4 9.65001ZM20.85 13.5L15.45 12.95L14.9 18.35L20.3 18.9L20.85 13.5ZM27.1 56.65L29.3 61.6L34.25 59.4L32 54.4L27.1 56.65Z" fill="#E7F9FF"/>
<path d="M27.1 56.65L32 54.4L34.25 59.4L29.3 61.6L27.1 56.65ZM43.15 11.05L38.7 7.90001L41.9 3.45001L46.3 6.65001L43.15 11.05Z" fill="#D9F5FF"/>
<path d="M52.45 26.85L50.55 32L45.4 30L47.35 24.9L52.45 26.85ZM6 39.65L9.20001 35.3L13.55 38.45L10.4 42.85L6 39.65Z" fill="#EEFAFF"/>
</svg>