
<svg viewBox="0 0 64 64" fill="none" xmlns="http://www.w3.org/2000/svg" style="transform:rotate(180deg)">
<path d="M14.75 50L13.2 45.35L8.59998 46.95L10.15 51.55L14.75 50ZM64 9.25L56.5 11.05L58.25 18.6L64 17.3V34.4L60.65 34.8L61.3 40.2L64 39.9V64H48.4L48.8 60.2L39.25 59.1L38.7 64H0V39.9L2.70001 39.55L2.04999 34.15L0 34.4V17.3L1.84998 16.85L0.0499878 9.25H0V0H38.7L38.15 4.65L47.7 5.75L48.35 0H64V9.25ZM3 3.9L5.25 8.85L10.2 6.6L8 1.7L3 3.9ZM19.3 2.9L12.95 9.8L19.85 16.15L26.2 9.25L19.3 2.9ZM42 8.45L38.8 12.9L43.25 16.05L46.4 11.65L42 8.45ZM36.05 24.6L36.6 19.2L31.2 18.65L30.65 24.05L36.05 24.6ZM48.15 33.85L44.65 29.65L40.45 33.1L43.9 37.3L48.15 33.85ZM35.3 36.1L32.95 28.65L25.5 31L27.9 38.45L35.3 36.1ZM46.45 24L50.4 27.75L54.15 23.8L50.2 20.05L46.45 24ZM18.15 31.7L20.7 21.8L10.85 19.25L8.29999 29.1L18.15 31.7ZM29.4 48L19.65 45.8L17.5 55.6L27.2 57.75L29.4 48ZM52.5 49.3L50.15 41.9L42.75 44.25L45.1 51.65L52.5 49.3ZM39.3 51.1L37.05 46.1L32.15 48.35L34.35 53.3L39.3 51.1ZM1.79999 56.95L2.65002 62.3L8 61.45L7.15002 56.1L1.79999 56.95ZM10.95 35.2L7.75 39.55L12.15 42.75L15.3 38.35L10.95 35.2ZM55.25 49.5L54.7 54.95L60.1 55.5L60.7 50.05L55.25 49.5ZM58.3 32.15L53.2 30.2L51.25 35.3L56.4 37.3L58.3 32.15Z" fill="#BB8044"/>
<path d="M58.3 32.15L56.4 37.3L51.25 35.3L53.2 30.2L58.3 32.15ZM64 17.3L58.25 18.6L56.5 11.05L64 9.25V17.3ZM48.35 0L47.7 5.75L38.15 4.65L38.7 0H48.35ZM0 9.25H0.0499878L1.84998 16.85L0 17.3V9.25ZM38.7 64L39.25 59.1L48.8 60.2L48.4 64H38.7ZM35.3 36.1L27.9 38.45L25.5 31L32.95 28.65L35.3 36.1ZM48.15 33.85L43.9 37.3L40.45 33.1L44.65 29.65L48.15 33.85ZM18.15 31.7L8.29999 29.1L10.85 19.25L20.7 21.8L18.15 31.7ZM52.5 49.3L45.1 51.65L42.75 44.25L50.15 41.9L52.5 49.3ZM55.25 49.5L60.7 50.05L60.1 55.5L54.7 54.95L55.25 49.5Z" fill="#B17940"/>
<path d="M2.99884 3.9002L7.99884 1.7002L10.1989 6.6002L5.24884 8.8502L2.99884 3.9002ZM41.9988 8.4502L46.3989 11.6502L43.2488 16.0502L38.7988 12.9002L41.9988 8.4502ZM39.2988 51.1002L34.3488 53.3002L32.1489 48.3502L37.0488 46.1002L39.2988 51.1002ZM10.9489 35.2002L15.2988 38.3502L12.1489 42.7502L7.74884 39.5502L10.9489 35.2002ZM1.79883 56.9502L7.14886 56.1002L7.99884 61.4502L2.64886 62.3002L1.79883 56.9502Z" fill="#CD8C4A"/>
<path d="M19.2992 2.90039L26.1992 9.25039L19.8492 16.1504L12.9492 9.80039L19.2992 2.90039ZM46.4492 24.0004L50.1992 20.0504L54.1492 23.8004L50.3992 27.7504L46.4492 24.0004ZM29.3992 48.0004L27.1992 57.7504L17.4992 55.6004L19.6492 45.8004L29.3992 48.0004Z" fill="#9F6C39"/>
<path d="M0 34.4004L2.04999 34.1504L2.70001 39.5504L0 39.9004V34.4004ZM64 39.9004L61.3 40.2004L60.65 34.8004L64 34.4004V39.9004ZM36.05 24.6004L30.65 24.0504L31.2 18.6504L36.6 19.2004L36.05 24.6004ZM14.75 50.0004L10.15 51.5504L8.59998 46.9504L13.2 45.3504L14.75 50.0004Z" fill="#C48647"/>
<path d="M53.4 1.80078H64V14.4008C58.4333 12.2674 52.6333 11.3341 46.6 11.6008C48.7 9.36744 50.5167 6.90078 52.05 4.20078L53.4 1.80078ZM0 1.80078H9.45001L7.45001 7.30078C6.68335 10.3008 5.68335 13.1174 4.45001 15.7508L0 14.4008V1.80078ZM14.85 17.3008L15.3 12.8508L20.7 13.4008L20.35 17.1508L14.85 17.3008ZM29.6 8.70078L24.25 9.55078L23.4 4.20078L28.75 3.35078L29.6 8.70078Z" fill="#F5FCFF"/>
<path d="M0 17.3501L3.04999 18.5001C10.2833 21.0001 17.2166 21.5501 23.85 20.1501C26.6166 19.5834 29.3333 18.6501 32 17.3501L34 16.6001C37.4333 15.3001 40.7833 14.4501 44.05 14.0501H44.1C47.4666 13.6501 50.7833 13.7168 54.05 14.2501H54.1L56.55 14.7501H56.6C58.5 15.1834 60.3833 15.8001 62.25 16.6001L64 17.3501V21.5001C61.8667 20.2334 59.7167 19.2334 57.55 18.5001C55.5167 17.8001 53.45 17.3501 51.35 17.1501H51.3C46.5667 16.6834 41.7333 17.4168 36.8 19.3501L36.6 19.4501C35.0666 20.0168 33.5333 20.7001 32 21.5001L30.15 22.6001L29.9 22.7001C27.9 23.7001 25.8833 24.4834 23.85 25.0501L20.95 25.7001L20.8 25.7501C14.4 26.6834 7.76669 25.4168 0.900024 21.9501L0 21.5001V17.3501Z" fill="black" fill-opacity="0.101961"/>
<path d="M0 17.3501V14.4001L4.45001 15.7501C7.98335 16.6501 11.45 17.1668 14.85 17.3001L20.35 17.1501L23.85 16.7001L24.45 16.6001C27.0167 16.1001 29.5333 15.3668 32 14.4001C37 12.7001 41.8666 11.7668 46.6 11.6001C52.6333 11.3334 58.4333 12.2668 64 14.4001V17.3501L62.25 16.6001C60.3833 15.8001 58.5 15.1834 56.6 14.7501H56.55L54.1 14.2501H54.05C50.7833 13.7168 47.4666 13.6501 44.1 14.0501H44.05C40.7833 14.4501 37.4333 15.3001 34 16.6001L32 17.3501C29.3333 18.6501 26.6166 19.5834 23.85 20.1501C17.2166 21.5501 10.2833 21.0001 3.04999 18.5001L0 17.3501Z" fill="#D0F2FF"/>
<path d="M64 1.8H53.4H9.45001H0V0H64V1.8Z" fill="white"/>
<path d="M9.44922 1.80078H53.3992L52.0492 4.20078C50.5159 6.90078 48.6992 9.36744 46.5992 11.6008C41.8658 11.7674 36.9992 12.7008 31.9992 14.4008C29.5325 15.3674 27.0159 16.1008 24.4492 16.6008L23.8492 16.7008L20.3492 17.1508L20.6992 13.4008L15.2992 12.8508L14.8492 17.3008C11.4492 17.1674 7.98255 16.6508 4.44922 15.7508C5.68255 13.1174 6.68255 10.3008 7.44922 7.30078L9.44922 1.80078ZM29.5992 8.70078L28.7492 3.35078L23.3992 4.20078L24.2492 9.55078L29.5992 8.70078ZM38.5492 7.80078L42.9992 10.9508L46.1492 6.55078L41.7492 3.35078L38.5492 7.80078Z" fill="#E7F9FF"/>
<path d="M38.5488 7.80059L41.7488 3.35059L46.1489 6.55059L42.9988 10.9506L38.5488 7.80059Z" fill="#D9F5FF"/>
</svg>

