<svg xmlns="http://www.w3.org/2000/svg" viewBox="0 0 64 64" fill="none">
<path d="M27.35 57.85L29.55 48.1L19.8 45.9L17.65 55.7L27.35 57.85ZM46.55 11.75L42.15 8.55L38.95 13L43.4 16.15L46.55 11.75ZM48.5 0.100006H64.15V9.35001L56.65 11.15L58.4 18.7L64.15 17.4V34.5L60.8 34.9L61.45 40.3L64.15 40V64.1H48.55L48.95 60.3L39.4 59.2L38.85 64.1H0.150024V40L2.85004 39.65L2.20001 34.25L0.150024 34.5V17.4L2 16.95L0.200012 9.35001H0.150024V0.100006H38.85L38.3 4.75L47.85 5.85001L48.5 0.100006ZM54.3 23.9L50.35 20.15L46.6 24.1L50.55 27.85L54.3 23.9ZM55.4 49.6L54.85 55.05L60.25 55.6L60.85 50.15L55.4 49.6ZM42.9 44.35L45.25 51.75L52.65 49.4L50.3 42L42.9 44.35ZM58.45 32.25L53.35 30.3L51.4 35.4L56.55 37.4L58.45 32.25ZM44.8 29.75L40.6 33.2L44.05 37.4L48.3 33.95L44.8 29.75ZM5.40002 8.95001L10.35 6.70001L8.15002 1.8L3.15002 4L5.40002 8.95001ZM26.35 9.35001L19.45 3L13.1 9.90001L20 16.25L26.35 9.35001ZM28.05 38.55L35.45 36.2L33.1 28.75L25.65 31.1L28.05 38.55ZM31.35 18.75L30.8 24.15L36.2 24.7L36.75 19.3L31.35 18.75ZM15.45 38.45L11.1 35.3L7.90002 39.65L12.3 42.85L15.45 38.45ZM8.45001 29.2L18.3 31.8L20.85 21.9L11 19.35L8.45001 29.2ZM1.95001 57.05L2.80005 62.4L8.15002 61.55L7.30005 56.2L1.95001 57.05ZM8.75 47.05L10.3 51.65L14.9 50.1L13.35 45.45L8.75 47.05ZM32.3 48.45L34.5 53.4L39.45 51.2L37.2 46.2L32.3 48.45Z" fill="#BB8044"/>
<path d="M64.15 9.35001V17.4L58.4 18.7L56.65 11.15L64.15 9.35001ZM48.55 64.1H38.85L39.4 59.2L48.95 60.3L48.55 64.1ZM0.150024 17.4V9.35001H0.200012L2 16.95L0.150024 17.4ZM38.85 0.100006H48.5L47.85 5.85001L38.3 4.75L38.85 0.100006ZM44.8 29.75L48.3 33.95L44.05 37.4L40.6 33.2L44.8 29.75ZM58.45 32.25L56.55 37.4L51.4 35.4L53.35 30.3L58.45 32.25ZM42.9 44.35L50.3 42L52.65 49.4L45.25 51.75L42.9 44.35ZM55.4 49.6L60.85 50.15L60.25 55.6L54.85 55.05L55.4 49.6ZM28.05 38.55L25.65 31.1L33.1 28.75L35.45 36.2L28.05 38.55ZM8.45001 29.2L11 19.35L20.85 21.9L18.3 31.8L8.45001 29.2Z" fill="#B17940"/>
<path d="M46.55 11.75L43.4 16.15L38.95 13L42.15 8.54999L46.55 11.75ZM5.40002 8.95L3.15002 3.99998L8.15002 1.79999L10.35 6.7L5.40002 8.95ZM15.45 38.45L12.3 42.85L7.90002 39.65L11.1 35.3L15.45 38.45ZM1.95001 57.05L7.30005 56.2L8.15002 61.55L2.80005 62.4L1.95001 57.05ZM32.3 48.45L37.2 46.2L39.45 51.2L34.5 53.4L32.3 48.45Z" fill="#CD8C4A"/>
<path d="M64.15 34.5V40L61.45 40.3L60.8 34.9L64.15 34.5ZM0.150024 40V34.5L2.20001 34.25L2.85004 39.65L0.150024 40ZM31.35 18.75L36.75 19.3L36.2 24.7L30.8 24.15L31.35 18.75ZM8.75 47.05L13.35 45.45L14.9 50.1L10.3 51.65L8.75 47.05Z" fill="#C48647"/>
<path d="M54.3 23.9L50.55 27.85L46.6 24.1L50.35 20.15L54.3 23.9ZM26.35 9.35001L20 16.25L13.1 9.90001L19.45 3L26.35 9.35001ZM27.35 57.85L17.65 55.7L19.8 45.9L29.55 48.1L27.35 57.85Z" fill="#9F6C39"/>
</svg>